<?xml version="1.0" encoding="UTF-8"?>
<!-- Generator: Adobe Illustrator 19.2.0, SVG Export Plug-In . SVG Version: 6.00 Build 0)  -->
<svg version="1.1" id="svg2" inkscape:export-filename="/Users/olivier/Desktop/Blason Rouge/Blason_Vide_3D.png" inkscape:export-xdpi="144" inkscape:export-ydpi="144" inkscape:output_extension="org.inkscape.output.svg.inkscape" inkscape:version="0.91 r13725" sodipodi:docname="Template.svg" sodipodi:version="0.32" xmlns:cc="http://creativecommons.org/ns#" xmlns:dc="http://purl.org/dc/elements/1.1/" xmlns:inkscape="http://www.inkscape.org/namespaces/inkscape" xmlns:rdf="http://www.w3.org/1999/02/22-rdf-syntax-ns#" xmlns:sodipodi="http://sodipodi.sourceforge.net/DTD/sodipodi-0.dtd" xmlns:svg="http://www.w3.org/2000/svg" xmlns="http://www.w3.org/2000/svg" xmlns:xlink="http://www.w3.org/1999/xlink" x="0px" y="0px" viewBox="0 0 600 659.5" style="enable-background:new 0 0 600 659.5;" xml:space="preserve">
<style type="text/css">
	.st0{fill:#E20909;stroke:#000000;stroke-width:3;stroke-miterlimit:10;}
	.st1{fill:#FFFFFF;stroke:#990000;stroke-miterlimit:10;}
	.st2{fill:url(#path2875_2_);stroke:#000000;stroke-width:3.0003;stroke-miterlimit:10;}
</style>
<path id="path2875_1_" class="st0" d="M299.9,657.9c0,0,298.6-112.3,298.6-397.8V1.5H1.5v258.6C1.5,545.6,299.9,657.9,299.9,657.9z"/>
<sodipodi:namedview bordercolor="#666666" borderopacity="1.0" gridtolerance="10.0" guidetolerance="10.0" height="660px" id="base" inkscape:current-layer="svg2" inkscape:cx="300" inkscape:cy="329.99986" inkscape:guide-bbox="true" inkscape:pageopacity="0.0" inkscape:pageshadow="2" inkscape:window-height="856" inkscape:window-maximized="0" inkscape:window-width="1280" inkscape:window-x="-4" inkscape:window-y="0" inkscape:zoom="1.1560601" objecttolerance="10.0" pagecolor="#ffffff" showgrid="false" showguides="true">
	</sodipodi:namedview>
<desc id="desc4">SVG coat of arms</desc>
<g id="g9370" transform="matrix(0.6072994,0,0,0.6935206,-525.20603,251.96104)">
</g>
<g id="g2137" transform="translate(-1456.1316,-460.60449)">
</g>
<g>
	<path class="st1" d="M540.5,445.2c-2.2-2.2-2.9-5.7-1.7-8.7c-3.1,1.2-6.5,0.5-8.7-1.7c-2.5-2.5-3-7-1.1-10.2l0.1-0.2l2.3,2.3l1-1   l-1.1-1.1l0.2-0.1c0.2-0.2,0.5-0.3,0.7-0.5c1.1-0.8,2.3-1.7,4.7-1.3c1.3,0.2,2.1,0.7,2.4,1.5c0.2,0.5,0.2,1.2-0.2,1.7   c-0.3,0.6-1.5,1-2.1,1.2c-0.3,0.1-0.5,0.2-0.5,0.2l0,0c4.2,2.2,7.3,2.2,9.7,0.2c0.6-0.5,0.9-1.3,1-2.3c0.1-1.4-0.4-2.9-1.4-3.9   l-0.1-0.1c-1.5-1.5-3.4-2.3-5.7-2.3c-4.3-0.1-8.8,2.6-10.2,4l-0.2,0.2l-0.7-0.7l0.2-0.2c2.3-2.3,4.8-4,7.3-4.7   c6.8-2,9.7-6.4,8.9-13.5c-7.1-0.8-11.5,2.1-13.5,8.9c-0.8,2.4-2.5,5-4.7,7.3l-0.2,0.2l-0.7-0.7l0.2-0.2c1.4-1.4,4-5.9,4-10.2   c0-2.3-0.8-4.2-2.3-5.7l-0.1-0.1c-1-0.9-2.5-1.5-3.9-1.4c-1,0.1-1.8,0.4-2.3,1c-2,2.5-1.9,5.5,0.2,9.7l0,0c0,0,0.1-0.2,0.2-0.5   c0.2-0.7,0.6-1.8,1.2-2.1c0.5-0.3,1.1-0.4,1.7-0.2c0.7,0.3,1.2,1.1,1.5,2.4c0.4,2.4-0.5,3.6-1.3,4.7c-0.2,0.2-0.4,0.5-0.5,0.7   l-0.1,0.2l-1.1-1.1l-1,1l2.3,2.3l-0.2,0.1c-3.2,1.9-7.7,1.4-10.2-1.1c-2.2-2.2-2.9-5.6-1.7-8.7c-3.1,1.2-6.5,0.5-8.7-1.7   c-2.5-2.5-3-7-1.1-10.2l0.1-0.2l2.3,2.3l1-1l-1.1-1.1l0.2-0.1c0.2-0.1,0.4-0.3,0.7-0.5l0,0c1.1-0.8,2.3-1.7,4.7-1.3   c1.3,0.2,2.1,0.7,2.4,1.5c0.2,0.5,0.2,1.2-0.2,1.7c-0.3,0.6-1.5,1-2.1,1.2c-0.3,0.1-0.5,0.2-0.5,0.2c4.2,2.2,7.3,2.2,9.8,0.2   c0.6-0.5,0.9-1.3,1-2.3c0.1-1.4-0.4-2.9-1.4-3.9l-0.1-0.1c-1.5-1.5-3.4-2.3-5.7-2.3c-4.3-0.1-8.8,2.6-10.2,4l-0.2,0.2l-0.7-0.7   l0.2-0.2c2.3-2.3,4.8-4,7.3-4.7c6.8-2,9.7-6.4,8.9-13.5c-7.1-0.8-11.5,2.1-13.5,8.9c-0.8,2.4-2.5,5-4.7,7.3l-0.2,0.2l-0.7-0.7   l0.2-0.2c1.4-1.4,4-5.9,4-10.2c0-2.3-0.8-4.2-2.3-5.7l-0.1-0.1c-1-0.9-2.5-1.5-3.9-1.4c-1,0.1-1.8,0.4-2.3,1   c-2,2.5-1.9,5.5,0.2,9.7l0,0c0,0,0.1-0.2,0.2-0.5c0.2-0.7,0.6-1.8,1.2-2.1c0.5-0.3,1.1-0.4,1.7-0.2c0.7,0.3,1.2,1.2,1.5,2.4   c0.4,2.4-0.5,3.6-1.3,4.7c-0.2,0.2-0.3,0.5-0.5,0.7l-0.1,0.2l-1.1-1.1l-1,1l2.3,2.3l-0.2,0.1c-3.2,1.9-7.7,1.4-10.2-1.1   c-2.2-2.2-2.9-5.7-1.7-8.7c-3.1,1.2-6.5,0.5-8.7-1.7c-2.5-2.5-3-7-1.1-10.2l0.1-0.2l2.3,2.3l1-1l-1.1-1.1l0.2-0.1   c0.2-0.2,0.5-0.3,0.7-0.5c1.1-0.8,2.3-1.7,4.7-1.3c1.3,0.2,2.1,0.7,2.4,1.5c0.2,0.5,0.2,1.2-0.2,1.7c-0.3,0.6-1.5,1-2.1,1.2   c-0.3,0.1-0.5,0.2-0.5,0.2l0,0c4.2,2.2,7.3,2.2,9.7,0.2c0.6-0.5,0.9-1.3,1-2.3c0.1-1.4-0.4-2.9-1.4-3.9l-0.1-0.1   c-1.5-1.5-3.4-2.3-5.7-2.3c-4.3-0.1-8.8,2.6-10.2,4l-0.2,0.2l-0.7-0.7l0.2-0.2c2.3-2.3,4.8-4,7.3-4.7c6.8-2,9.7-6.4,8.9-13.5   c-7.1-0.8-11.5,2.1-13.5,8.9c-0.8,2.4-2.5,5-4.7,7.3l-0.2,0.2l-0.7-0.7l0.2-0.2c1.4-1.4,4-5.9,4-10.2c0-2.3-0.8-4.2-2.3-5.7   c0,0,0,0-0.1-0.1c-1-0.9-2.5-1.5-3.9-1.4c-1,0.1-1.8,0.4-2.3,1c-2,2.5-1.9,5.5,0.2,9.7l0,0c0,0,0.1-0.2,0.2-0.5   c0.2-0.7,0.6-1.8,1.2-2.1c0.5-0.3,1.1-0.4,1.7-0.2c0.7,0.3,1.2,1.2,1.5,2.4c0.4,2.4-0.5,3.6-1.3,4.7l0,0c-0.2,0.2-0.3,0.4-0.5,0.7   l-0.1,0.2l-1.1-1.1l-1,1l2.3,2.3l-0.2,0.1c-3.2,1.9-7.7,1.4-10.2-1.1c-2.2-2.2-2.9-5.6-1.7-8.7c-3.1,1.2-6.5,0.5-8.7-1.7   c-2.5-2.5-3-7-1.1-10.2l0.1-0.2l2.3,2.3l1-1l-1.1-1.1l0.2-0.1c0.2-0.1,0.4-0.3,0.7-0.5l0,0c1.1-0.8,2.3-1.7,4.7-1.3   c1.3,0.2,2.1,0.7,2.4,1.5c0.2,0.5,0.2,1.2-0.2,1.7c-0.3,0.6-1.5,1-2.1,1.2c-0.3,0.1-0.5,0.2-0.5,0.2l0,0c4.2,2.2,7.3,2.2,9.7,0.2   c0.6-0.5,0.9-1.3,1-2.3c0.1-1.4-0.4-2.9-1.4-3.9l-0.1-0.1c-1.5-1.5-3.4-2.3-5.7-2.3c-4.3-0.1-8.8,2.6-10.2,4l-0.2,0.2l-0.7-0.7   l0.2-0.2c2.3-2.3,4.8-4,7.3-4.7c6.8-2,9.7-6.4,8.9-13.5c-7.1-0.8-11.5,2.1-13.5,8.9c-0.8,2.4-2.5,5-4.7,7.3l-0.2,0.2l-0.7-0.7   l0.2-0.2c1.4-1.4,4-5.9,4-10.2c0-2.3-0.8-4.2-2.3-5.7l-0.1-0.1c-1-0.9-2.5-1.5-3.9-1.4c-1,0.1-1.8,0.4-2.3,1   c-2,2.5-1.9,5.5,0.2,9.7l0,0c0,0,0.1-0.2,0.2-0.5c0.2-0.7,0.6-1.8,1.2-2.1c0.5-0.3,1.1-0.4,1.7-0.2c0.7,0.3,1.2,1.2,1.5,2.4   c0.4,2.4-0.5,3.6-1.3,4.7c-0.2,0.2-0.4,0.5-0.5,0.7l-0.1,0.2l-1.1-1.1l-1,1l2.3,2.3l-0.2,0.1c-3.2,1.9-7.7,1.4-10.2-1.1   c-2.2-2.2-2.9-5.6-1.7-8.7c-3.1,1.2-6.5,0.5-8.7-1.7c-2.5-2.5-3-7-1.1-10.2l0.1-0.2l2.3,2.3l1-1l-1.1-1.1l0.2-0.1   c0.2-0.1,0.4-0.3,0.7-0.5l0,0c1.1-0.8,2.3-1.7,4.7-1.3c1.3,0.2,2.1,0.7,2.4,1.5c0.2,0.5,0.2,1.2-0.2,1.7c-0.3,0.6-1.5,1-2.1,1.2   c-0.3,0.1-0.5,0.2-0.5,0.2c4.2,2.2,7.3,2.2,9.8,0.2c0.6-0.5,0.9-1.3,1-2.3c0.1-1.4-0.4-2.9-1.4-3.9l-0.1-0.1   c-1.5-1.5-3.4-2.3-5.7-2.3c-4.3-0.1-8.8,2.6-10.2,4l-0.2,0.2l-0.7-0.7l0.2-0.2c2.3-2.3,4.8-4,7.3-4.7c6.8-2,9.7-6.4,8.9-13.5   c-7.1-0.8-11.5,2.1-13.5,8.9c-0.8,2.4-2.5,5-4.7,7.3l-0.2,0.2l-0.7-0.7l0.2-0.2c1.4-1.4,4-5.9,4-10.2c0-2.3-0.8-4.2-2.3-5.7   l-0.1-0.1c-1-0.9-2.5-1.5-3.9-1.4c-1,0.1-1.8,0.4-2.3,1c-2,2.5-1.9,5.5,0.2,9.7l0,0c0,0,0.1-0.2,0.2-0.5c0.2-0.7,0.6-1.8,1.2-2.1   c0.5-0.3,1.1-0.4,1.7-0.2c0.7,0.3,1.2,1.2,1.5,2.4c0.4,2.4-0.5,3.6-1.3,4.7l0,0c-0.2,0.2-0.3,0.4-0.5,0.7l-0.1,0.2l-1.1-1.1l-1,1   l2.3,2.3l-0.2,0.1c-3.2,1.9-7.7,1.4-10.2-1.1c-2.2-2.2-2.9-5.7-1.7-8.7c-3.1,1.2-6.5,0.5-8.7-1.7c-2.5-2.5-3-7-1.1-10.2l0.1-0.2   l2.3,2.3l1-1l-1.1-1.1l0.2-0.1c0.2-0.2,0.5-0.3,0.7-0.5c1.1-0.8,2.3-1.7,4.7-1.3c1.3,0.2,2.1,0.7,2.4,1.5c0.2,0.5,0.2,1.2-0.2,1.7   c-0.3,0.6-1.5,1-2.1,1.2c-0.3,0.1-0.5,0.2-0.5,0.2l0,0c4.2,2.2,7.3,2.2,9.7,0.2c0.6-0.5,0.9-1.3,1-2.3c0.1-1.4-0.4-2.9-1.4-3.9   l-0.1-0.1c-1.5-1.5-3.4-2.3-5.7-2.3c-4.3-0.1-8.8,2.6-10.2,4l-0.2,0.2l-0.7-0.7l0.2-0.2c2.3-2.3,4.8-4,7.3-4.7   c6.8-2,9.7-6.4,8.9-13.5c-7.1-0.8-11.5,2.1-13.5,8.9c-0.8,2.4-2.5,5-4.7,7.3l-0.2,0.2l-0.7-0.7l0.2-0.2c1.4-1.4,4-5.9,4-10.2   c0-2.3-0.9-4.3-2.4-5.8c-1-0.9-2.5-1.5-3.9-1.4c-1,0.1-1.8,0.4-2.3,1c-2,2.5-1.9,5.5,0.2,9.7l0,0c0,0,0.1-0.2,0.2-0.5   c0.2-0.7,0.6-1.8,1.2-2.1c0.5-0.3,1.1-0.4,1.7-0.2c0.7,0.3,1.2,1.2,1.5,2.4c0.4,2.4-0.5,3.6-1.3,4.7c-0.2,0.2-0.4,0.5-0.5,0.7   l-0.1,0.2l-1.1-1.1l-1,1l2.3,2.3l-0.2,0.1c-3.2,1.9-7.7,1.4-10.2-1.1c-2.2-2.2-2.9-5.6-1.7-8.7c-3.1,1.2-6.5,0.5-8.7-1.7   c-2.5-2.5-3-7-1.1-10.2l0.1-0.2l2.3,2.3l1-1l-1.1-1.1l0.2-0.1c0.2-0.1,0.4-0.3,0.7-0.5l0,0c1.1-0.8,2.3-1.7,4.7-1.3   c1.3,0.2,2.1,0.7,2.4,1.5c0.2,0.5,0.2,1.2-0.2,1.7c-0.3,0.6-1.5,1-2.1,1.2c-0.3,0.1-0.5,0.2-0.5,0.2c4.2,2.2,7.3,2.2,9.8,0.2   c0.6-0.5,0.9-1.3,1-2.3c0.1-1.4-0.4-2.9-1.4-3.9l-0.1-0.1c-1.5-1.5-3.4-2.3-5.7-2.3c-4.3-0.1-8.8,2.6-10.2,4l-0.2,0.2l-0.7-0.7   l0.2-0.2c2.3-2.3,4.8-4,7.3-4.7c6.8-2,9.7-6.4,8.9-13.5c-7.1-0.8-11.5,2.1-13.5,8.9c-0.8,2.4-2.5,5-4.7,7.3l-0.2,0.2l-0.7-0.7   l0.2-0.2c1.4-1.4,4-5.9,4-10.2c0-2.3-0.8-4.2-2.3-5.7c0,0,0,0-0.1-0.1c-1-0.9-2.5-1.5-3.9-1.4c-1,0.1-1.8,0.4-2.3,1   c-2,2.5-1.9,5.5,0.2,9.7l0,0c0,0,0.1-0.2,0.2-0.5c0.2-0.7,0.6-1.8,1.2-2.1c0.5-0.3,1.1-0.4,1.7-0.2c0.7,0.3,1.2,1.2,1.5,2.4   c0.4,2.4-0.5,3.6-1.3,4.7c-0.2,0.2-0.3,0.5-0.5,0.7L369,262l-1.1-1.1l-1,1l2.3,2.3l-0.2,0.1c-3.2,1.9-7.7,1.4-10.2-1.1   c-2.2-2.2-2.9-5.7-1.7-8.7c-3.1,1.2-6.5,0.5-8.7-1.7c-2.5-2.5-3-7-1.1-10.2l0.1-0.2l2.3,2.3l1-1l-1.1-1.1l0.2-0.1   c0.2-0.2,0.5-0.3,0.7-0.5c1.1-0.8,2.3-1.7,4.7-1.3c1.3,0.2,2.1,0.7,2.4,1.5c0.2,0.5,0.2,1.2-0.2,1.7c-0.3,0.6-1.5,1-2.1,1.2   c-0.3,0.1-0.5,0.2-0.5,0.2l0,0c4.2,2.2,7.3,2.2,9.7,0.2c0.6-0.5,0.9-1.3,1-2.3c0.1-1.4-0.4-2.9-1.4-3.9l-0.1-0.1   c-1.5-1.5-3.4-2.3-5.7-2.3c-4.3-0.1-8.8,2.6-10.2,4l-0.2,0.2l-0.7-0.7l0.2-0.2c2.3-2.3,4.8-4,7.3-4.7c6.8-2,9.7-6.4,8.9-13.5   c-7.1-0.8-11.5,2.1-13.5,8.9c-0.8,2.4-2.5,5-4.7,7.3l-0.2,0.2l-0.7-0.7l0.2-0.2c1.4-1.4,4-5.9,4-10.2c0-2.3-0.8-4.2-2.3-5.7   l-0.1-0.1c-1-0.9-2.5-1.5-3.9-1.4c-1,0.1-1.8,0.4-2.3,1c-2,2.5-1.9,5.5,0.2,9.7l0,0c0,0,0.1-0.2,0.2-0.5c0.2-0.7,0.6-1.8,1.2-2.1   c0.5-0.3,1.1-0.4,1.7-0.2c0.7,0.3,1.2,1.2,1.5,2.4c0.4,2.4-0.5,3.6-1.3,4.7l0,0c-0.2,0.2-0.3,0.4-0.5,0.7L343,236l-1.1-1.1l-1,1   l2.3,2.3l-0.2,0.1c-3.2,1.9-7.7,1.4-10.2-1.1c-2.2-2.2-2.9-5.6-1.7-8.7c-3.1,1.2-6.5,0.5-8.7-1.7c-2.5-2.5-3-7-1.1-10.2l0.1-0.2   l2.3,2.3l1-1l-1.1-1.1l0.2-0.1c0.2-0.1,0.4-0.3,0.7-0.5l0,0c1.1-0.8,2.3-1.7,4.7-1.3c1.3,0.2,2.1,0.7,2.4,1.5   c0.2,0.5,0.2,1.2-0.2,1.7c-0.3,0.6-1.5,1-2.1,1.2c-0.3,0.1-0.5,0.2-0.5,0.2l0,0c4.2,2.2,7.3,2.2,9.7,0.2c0.6-0.5,0.9-1.3,1-2.3   c0.1-1.4-0.4-2.9-1.4-3.9l-0.1-0.1c-1.5-1.5-3.4-2.3-5.7-2.3c-4.3-0.1-8.8,2.6-10.2,4l-0.2,0.2l-0.7-0.7l0.2-0.2   c2.3-2.3,4.8-4,7.3-4.7c6.8-2,9.7-6.4,8.9-13.5c-7.1-0.8-11.5,2.1-13.5,8.9c-0.8,2.4-2.5,5-4.7,7.3l-0.2,0.2l-0.7-0.7l0.2-0.2   c1.4-1.4,4-5.9,4-10.2c0-2.3-0.8-4.2-2.3-5.7l-0.1-0.1c-1-0.9-2.5-1.5-3.9-1.4c-1,0.1-1.8,0.4-2.3,1c-2,2.5-1.9,5.5,0.2,9.7l0,0   c0,0,0.1-0.2,0.2-0.5c0.2-0.7,0.6-1.8,1.2-2.1c0.5-0.3,1.1-0.4,1.7-0.2c0.7,0.3,1.2,1.2,1.5,2.4c0.4,2.4-0.5,3.6-1.3,4.7   c-0.2,0.2-0.4,0.5-0.5,0.7L317,210l-1.1-1.1l-1,1l2.3,2.3l-0.2,0.1c-3.2,1.9-7.7,1.4-10.2-1.1c-2.2-2.2-2.9-5.6-1.7-8.7   c-3.1,1.2-6.5,0.5-8.7-1.7c-2.5-2.5-3-7-1.1-10.2l0.1-0.2l2.3,2.3l1-1l-1.1-1.1l0.2-0.1c0.2-0.1,0.4-0.3,0.7-0.5l0,0   c1.1-0.8,2.3-1.7,4.7-1.3c1.3,0.2,2.1,0.7,2.4,1.5c0.2,0.5,0.2,1.2-0.2,1.7c-0.3,0.6-1.5,1-2.1,1.2c-0.3,0.1-0.5,0.2-0.5,0.2   c4.2,2.2,7.3,2.2,9.8,0.2c0.6-0.5,0.9-1.3,1-2.3c0.1-1.4-0.4-2.9-1.4-3.9l-0.1-0.1c-1.5-1.5-3.4-2.3-5.7-2.3   c-4.3-0.1-8.8,2.6-10.2,4l-0.2,0.2l-0.7-0.7l0.2-0.2c2.3-2.3,4.8-4,7.3-4.7c6.8-2,9.7-6.4,8.9-13.5c-7.1-0.8-11.5,2.1-13.5,8.9   c-0.8,2.4-2.5,5-4.7,7.3l-0.2,0.2l-0.7-0.7l0.2-0.2c1.4-1.4,4-5.9,4-10.2c0-2.3-0.8-4.2-2.3-5.7l-0.1-0.1c-1-0.9-2.5-1.5-3.9-1.4   c-1,0.1-1.8,0.4-2.3,1c-2,2.5-1.9,5.5,0.2,9.7l0,0c0,0,0.1-0.2,0.2-0.5c0.2-0.7,0.6-1.8,1.2-2.1c0.5-0.3,1.1-0.4,1.7-0.2   c0.7,0.3,1.2,1.2,1.5,2.4c0.4,2.4-0.5,3.6-1.3,4.7l0,0c-0.2,0.2-0.3,0.4-0.5,0.7l-0.1,0.2l-1.1-1.1l-1,1l2.3,2.3l-0.2,0.1   c-3.2,1.9-7.7,1.4-10.2-1.1c-2.2-2.2-2.9-5.7-1.7-8.7c-3.1,1.2-6.5,0.5-8.7-1.7c-2.5-2.5-3-7-1.1-10.2l0.1-0.2l2.3,2.3l1-1   l-1.1-1.1l0.2-0.1c0.2-0.2,0.5-0.3,0.7-0.5c1.1-0.8,2.3-1.7,4.7-1.3c1.3,0.2,2.1,0.7,2.4,1.5c0.2,0.5,0.2,1.2-0.2,1.7   c-0.3,0.6-1.5,1-2.1,1.2c-0.3,0.1-0.5,0.2-0.5,0.2l0,0c4.2,2.2,7.3,2.2,9.7,0.2c0.6-0.5,0.9-1.3,1-2.3c0.1-1.4-0.4-2.9-1.4-3.9   l-0.1-0.1c-1.5-1.5-3.4-2.3-5.7-2.3c-4.3-0.1-8.8,2.6-10.2,4l-0.2,0.2l-0.7-0.7l0.2-0.2c2.3-2.3,4.8-4,7.3-4.7   c6.8-2,9.7-6.4,8.9-13.5c-7.1-0.8-11.5,2.1-13.5,8.9c-0.8,2.4-2.5,5-4.7,7.3l-0.2,0.2l-0.7-0.7l0.2-0.2c1.4-1.4,4-5.9,4-10.2   c0-2.3-0.8-4.2-2.3-5.7l-0.1-0.1c-1-0.9-2.5-1.5-3.9-1.4c-1,0.1-1.8,0.4-2.3,1c-2,2.5-1.9,5.5,0.2,9.7l0,0c0,0,0.1-0.2,0.2-0.5   c0.2-0.7,0.6-1.8,1.2-2.1c0.5-0.3,1.1-0.4,1.7-0.2c0.7,0.3,1.2,1.1,1.5,2.4c0.4,2.4-0.5,3.6-1.3,4.7c-0.2,0.2-0.4,0.5-0.5,0.7   l-0.1,0.2l-1.1-1.1l-1,1l2.3,2.3l-0.2,0.1c-3.2,1.9-7.7,1.4-10.2-1.1c-2.2-2.2-2.9-5.6-1.7-8.7c-3.1,1.2-6.5,0.5-8.7-1.7   c-2.5-2.5-3-7-1.1-10.2l0.1-0.2l2.3,2.3l1-1l-1.1-1.1l0.2-0.1c0.2-0.1,0.4-0.3,0.7-0.5l0,0c1.1-0.8,2.3-1.7,4.7-1.3   c1.3,0.2,2.1,0.7,2.4,1.5c0.2,0.5,0.2,1.2-0.2,1.7c-0.3,0.6-1.5,1-2.1,1.2c-0.3,0.1-0.5,0.2-0.5,0.2c4.2,2.2,7.3,2.2,9.8,0.2   c0.6-0.5,0.9-1.3,1-2.3c0.1-1.4-0.4-2.9-1.4-3.9l-0.1-0.1c-1.5-1.5-3.4-2.3-5.7-2.3c-4.3-0.1-8.8,2.6-10.2,4l-0.2,0.2l-0.7-0.7   l0.2-0.2c2.3-2.3,4.8-4,7.3-4.7c6.8-2,9.7-6.4,8.9-13.5c-7.1-0.8-11.5,2.1-13.5,8.9c-0.8,2.4-2.5,5-4.7,7.3l-0.2,0.2l-0.7-0.7   l0.2-0.2c1.4-1.4,4-5.9,4-10.2c0-2.3-0.8-4.2-2.3-5.7l-0.1-0.1c-1-0.9-2.5-1.5-3.9-1.4c-1,0.1-1.8,0.4-2.3,1   c-2,2.5-1.9,5.5,0.2,9.7l0,0c0,0,0.1-0.2,0.2-0.5c0.2-0.7,0.6-1.8,1.2-2.1c0.5-0.3,1.1-0.4,1.7-0.2c0.7,0.3,1.2,1.2,1.5,2.4   c0.4,2.4-0.5,3.6-1.3,4.7c-0.2,0.2-0.3,0.5-0.5,0.7l-0.1,0.2l-1.1-1.1l-1,1l2.3,2.3l-0.2,0.1c-3.2,1.9-7.7,1.4-10.2-1.1   c-2.2-2.2-2.9-5.7-1.7-8.7c-3.1,1.2-6.5,0.5-8.7-1.7c-2.5-2.5-3-7-1.1-10.2l0.1-0.2l2.3,2.3l1-1l-1.1-1.1l0.2-0.1   c0.2-0.2,0.5-0.3,0.7-0.5c1.1-0.8,2.3-1.7,4.7-1.3c1.3,0.2,2.1,0.7,2.4,1.5c0.2,0.5,0.2,1.2-0.2,1.7c-0.3,0.6-1.5,1-2.1,1.2   c-0.3,0.1-0.5,0.2-0.5,0.2l0,0c4.2,2.2,7.3,2.2,9.7,0.2c0.6-0.5,0.9-1.3,1-2.3c0.1-1.4-0.4-2.9-1.4-3.9l-0.1-0.1   c-1.5-1.5-3.4-2.3-5.7-2.3c-4.3-0.1-8.8,2.6-10.2,4l-0.2,0.2l-0.7-0.7l0.2-0.2c2.3-2.3,4.8-4,7.3-4.7c6.8-2,9.7-6.4,8.9-13.5   c-7.1-0.8-11.5,2.1-13.5,8.9c-0.8,2.4-2.5,5-4.7,7.3l-0.2,0.2l-0.7-0.7l0.2-0.2c1.4-1.4,4-5.9,4-10.2c0-2.3-0.8-4.2-2.3-5.7   c0,0,0,0-0.1-0.1c-1-0.9-2.5-1.5-3.9-1.4c-1,0.1-1.8,0.4-2.3,1c-2,2.5-1.9,5.5,0.2,9.7l0,0c0,0,0.1-0.2,0.2-0.5   c0.2-0.7,0.6-1.8,1.2-2.1c0.5-0.3,1.1-0.4,1.7-0.2c0.7,0.3,1.2,1.2,1.5,2.4c0.4,2.4-0.5,3.6-1.3,4.7l0,0c-0.2,0.2-0.3,0.4-0.5,0.7   l-0.1,0.2l-1.1-1.1l-1,1l2.3,2.3l-0.2,0.1c-3.2,1.9-7.7,1.4-10.2-1.1c-2.2-2.2-2.9-5.6-1.7-8.7c-3.1,1.2-6.5,0.5-8.7-1.7   c-2.5-2.5-3-7-1.1-10.2l0.1-0.2l2.3,2.3l1-1l-1.1-1.1l0.2-0.1c0.2-0.1,0.4-0.3,0.7-0.5l0,0c1.1-0.8,2.3-1.7,4.7-1.3   c1.3,0.2,2.1,0.7,2.4,1.5c0.2,0.5,0.2,1.2-0.2,1.7c-0.3,0.6-1.5,1-2.1,1.2c-0.3,0.1-0.5,0.2-0.5,0.2l0,0c4.2,2.2,7.3,2.2,9.7,0.2   c0.6-0.5,0.9-1.3,1-2.3c0.1-1.4-0.4-2.9-1.4-3.9l-0.1-0.1c-1.5-1.5-3.4-2.3-5.7-2.3c-4.3-0.1-8.8,2.6-10.2,4l-0.2,0.2l-0.7-0.7   l0.2-0.2c2.3-2.3,4.8-4,7.3-4.7c6.8-2,9.7-6.4,8.9-13.5c-7.1-0.8-11.5,2.1-13.5,8.9c-0.8,2.4-2.5,5-4.7,7.3l-0.2,0.2l-0.7-0.7   l0.2-0.2c1.4-1.4,4-5.9,4-10.2c0-2.3-0.8-4.2-2.3-5.7l-0.1-0.1c-1-0.9-2.5-1.5-3.9-1.4c-1,0.1-1.8,0.4-2.3,1   c-2,2.5-1.9,5.5,0.2,9.7l0,0c0,0,0.1-0.2,0.2-0.5c0.2-0.7,0.6-1.8,1.2-2.1c0.5-0.3,1.1-0.4,1.7-0.2c0.7,0.3,1.2,1.2,1.5,2.4   c0.4,2.4-0.5,3.6-1.3,4.7c-0.2,0.2-0.4,0.5-0.5,0.7l-0.1,0.2l-1.1-1.1l-1,1l2.3,2.3l-0.2,0.1c-3.2,1.9-7.7,1.4-10.2-1.1   c-2.2-2.2-2.9-5.6-1.7-8.7c-3.1,1.2-6.5,0.5-8.7-1.7c-2.5-2.5-3-7-1.1-10.2l0.1-0.2l2.3,2.3l1-1l-1.1-1.1l0.2-0.1   c0.2-0.1,0.4-0.3,0.7-0.5l0,0c1.1-0.8,2.3-1.7,4.7-1.3c1.3,0.2,2.1,0.7,2.4,1.5c0.2,0.5,0.2,1.2-0.2,1.7c-0.3,0.6-1.5,1-2.1,1.2   c-0.3,0.1-0.5,0.2-0.5,0.2c4.2,2.2,7.3,2.2,9.8,0.2c0.6-0.5,0.9-1.3,1-2.3c0.1-1.4-0.4-2.9-1.4-3.9l-0.1-0.1   c-1.5-1.5-3.4-2.3-5.7-2.3c-4.3-0.1-8.8,2.6-10.2,4l-0.2,0.2l-0.7-0.7l0.2-0.2c2.3-2.3,4.8-4,7.3-4.7c6.8-2,9.7-6.4,8.9-13.5   c-7.1-0.8-11.5,2.1-13.5,8.9c-0.8,2.4-2.5,5-4.7,7.3l-0.2,0.2l-0.7-0.7l0.2-0.2c1.4-1.4,4-5.9,4-10.2c0-2.3-0.8-4.2-2.3-5.7   l-0.1-0.1c-1-0.9-2.5-1.5-3.9-1.4c-1,0.1-1.8,0.4-2.3,1c-2,2.5-1.9,5.5,0.2,9.7l0,0c0,0,0.1-0.2,0.2-0.5c0.2-0.7,0.6-1.8,1.2-2.1   c0.5-0.3,1.1-0.4,1.7-0.2c0.7,0.3,1.2,1.2,1.5,2.4c0.4,2.4-0.5,3.6-1.3,4.7l0,0c-0.2,0.2-0.3,0.4-0.5,0.7l-0.1,0.2l-1.1-1.1l-1,1   l2.3,2.3l-0.2,0.1c-3.2,1.9-7.7,1.4-10.2-1.1c-2.2-2.2-2.9-5.7-1.7-8.7c-3.1,1.2-6.5,0.5-8.7-1.7c-2.5-2.5-3-7-1.1-10.2l0.1-0.2   l2.3,2.3l1-1l-1.1-1.1l0.2-0.1c0.2-0.2,0.5-0.3,0.7-0.5c1.1-0.8,2.3-1.7,4.7-1.3c1.3,0.2,2.1,0.7,2.4,1.5c0.2,0.5,0.2,1.2-0.2,1.7   c-0.3,0.6-1.5,1-2.1,1.2c-0.3,0.1-0.5,0.2-0.5,0.2l0,0c4.2,2.2,7.3,2.2,9.7,0.2c0.6-0.5,0.9-1.3,1-2.3c0.1-1.4-0.4-2.9-1.4-3.9   l-0.1-0.1c-1.5-1.5-3.4-2.3-5.7-2.3c-4.3-0.1-8.8,2.6-10.2,4l-0.2,0.2l-0.7-0.7l0.2-0.2c2.3-2.3,4.8-4,7.3-4.7   c6.8-2,9.7-6.4,8.9-13.5c-7.1-0.8-11.5,2.1-13.5,8.9c-0.8,2.4-2.5,5-4.7,7.3l-0.2,0.2l-0.7-0.7l0.2-0.2c1.4-1.4,4-5.9,4-10.2   c0-2.3-0.9-4.3-2.4-5.8c-1-0.9-2.5-1.5-3.9-1.4c-1,0.1-1.8,0.4-2.3,1c-2,2.5-1.9,5.5,0.2,9.7l0,0c0,0,0.1-0.2,0.2-0.5   c0.2-0.7,0.6-1.8,1.2-2.1c0.5-0.3,1.1-0.4,1.7-0.2c0.7,0.3,1.2,1.2,1.5,2.4c0.4,2.4-0.5,3.6-1.3,4.7c-0.2,0.2-0.4,0.5-0.5,0.7   l-0.1,0.2l-1.1-1.1l-1,1l2.3,2.3l-0.2,0.1c-3.2,1.9-7.7,1.4-10.2-1.1c-2.2-2.2-2.9-5.6-1.7-8.7c-3.1,1.2-6.5,0.5-8.7-1.7   c-2.5-2.5-3-7-1.1-10.2l0.1-0.2l2.3,2.3l1-1l-1.1-1.1l0.2-0.1c0.2-0.1,0.4-0.3,0.7-0.5l0,0c1.1-0.8,2.3-1.7,4.7-1.3   c1.3,0.2,2.1,0.7,2.4,1.5c0.2,0.5,0.2,1.2-0.2,1.7c-0.3,0.6-1.5,1-2.1,1.2c-0.3,0.1-0.5,0.2-0.5,0.2c4.2,2.2,7.3,2.2,9.8,0.2   c0.6-0.5,0.9-1.3,1-2.3c0.1-1.4-0.4-2.9-1.4-3.9l-0.1-0.1c-1.5-1.5-3.4-2.3-5.7-2.3c-4.3-0.1-8.8,2.6-10.2,4l1.2,2.1L115,8.3   l0.2-0.2c2.3-2.3,4.8-4,7.3-4.7c1.7-0.5,3.1-1.1,4.3-1.9h-10.1c-0.9,1.6-2.1,3.2-3.5,4.6L113,6.3l-0.7-0.7l0.2-0.2   c0.7-0.7,1.7-2.1,2.5-3.9h-2.6c-0.3,0.6-0.6,1.1-1,1.6c-0.2,0.2-0.3,0.5-0.5,0.7L110.7,4l-1.1-1.1l-1,1l2.3,2.3l-0.2,0.1   c-3.2,1.9-7.7,1.4-10.2-1.1c-1-1-1.7-2.4-2.1-3.8H76.5l215.7,215.7L539.1,464c3.6-5.6,7.1-11.4,10.4-17.3   C546.5,448.1,542.7,447.4,540.5,445.2z"/>
	<path class="st1" d="M217.2,292.2L1.5,76.5v22.1c1.4,0.3,2.7,1,3.8,2.1c2.5,2.5,3,7,1.1,10.2L6.3,111L4,108.7l-1,1l1.1,1.1   l-0.2,0.1c-0.2,0.1-0.4,0.3-0.7,0.5l0,0c-0.5,0.4-1,0.7-1.6,1v2.6c1.8-0.8,3.2-1.8,3.9-2.5l0.2-0.2l0.7,0.7l-0.2,0.2   c-1.4,1.4-3,2.7-4.6,3.5v10.1c0.8-1.2,1.4-2.6,1.9-4.3c0.8-2.4,2.5-5,4.7-7.3l0.2-0.2l0.7,0.7l-0.2,0.2c-1.4,1.4-4,5.9-4,10.2   c0,2.3,0.8,4.2,2.3,5.7l0.1,0.1c1,0.9,2.5,1.5,3.9,1.4c1-0.1,1.8-0.4,2.3-1c2-2.5,1.9-5.5-0.2-9.7l0,0c0,0-0.1,0.2-0.2,0.5   c-0.2,0.7-0.6,1.8-1.2,2.1c-0.5,0.3-1.1,0.4-1.7,0.2c-0.7-0.3-1.2-1.2-1.5-2.4c-0.4-2.4,0.5-3.6,1.3-4.7c0.2-0.2,0.3-0.5,0.5-0.7   l0.1-0.2l1.1,1.1l1-1l-2.3-2.3l0.2-0.1c3.2-1.9,7.7-1.4,10.2,1.1c2.2,2.2,2.9,5.7,1.7,8.7c3.1-1.2,6.5-0.5,8.7,1.7   c2.5,2.5,3,7,1.1,10.2l-0.1,0.2l-2.3-2.3l-1,1l1.1,1.1l-0.2,0.1c-0.2,0.2-0.5,0.3-0.7,0.5c-1.1,0.8-2.3,1.7-4.7,1.3   c-1.3-0.2-2.1-0.7-2.4-1.5c-0.2-0.5-0.2-1.2,0.2-1.7c0.3-0.6,1.5-1,2.1-1.2c0.3-0.1,0.5-0.2,0.5-0.2l0,0c-4.2-2.2-7.3-2.2-9.7-0.2   c-0.6,0.5-0.9,1.3-1,2.3c-0.1,1.4,0.4,2.9,1.4,3.9l0.1,0.1c1.5,1.5,3.4,2.3,5.7,2.3c4.3,0.1,8.8-2.6,10.2-4l0.2-0.2l0.7,0.7H32   c-2.3,2.3-4.8,4-7.3,4.7c-6.8,2-9.7,6.4-8.9,13.5c7.1,0.8,11.5-2.1,13.5-8.9c0.8-2.4,2.5-5,4.7-7.3l0.2-0.2l0.7,0.7l-0.2,0.2   c-1.4,1.4-4,5.9-4,10.2c0,2.3,0.8,4.2,2.3,5.7c0,0,0,0,0.1,0.1c1,0.9,2.5,1.5,3.9,1.4c1-0.1,1.8-0.4,2.3-1c2-2.5,1.9-5.5-0.2-9.7   l0,0c0,0-0.1,0.2-0.2,0.5c-0.2,0.7-0.6,1.8-1.2,2.1c-0.5,0.3-1.1,0.4-1.7,0.2c-0.7-0.3-1.2-1.2-1.5-2.4c-0.4-2.4,0.5-3.6,1.3-4.7   l0,0c0.2-0.2,0.3-0.4,0.5-0.7l0.1-0.2l1.1,1.1l1-1l-2.3-2.3l0.2-0.1c3.2-1.9,7.7-1.4,10.2,1.1c2.2,2.2,2.9,5.6,1.7,8.7   c3.1-1.2,6.5-0.5,8.7,1.7c2.5,2.5,3,7,1.1,10.2l-0.1,0.2l-2.3-2.3l-1,1l1.1,1.1l-0.2,0.1c-0.2,0.1-0.4,0.3-0.7,0.5l0,0   c-1.1,0.8-2.3,1.7-4.7,1.3c-1.3-0.2-2.1-0.7-2.4-1.5c-0.2-0.5-0.2-1.2,0.2-1.7c0.3-0.6,1.5-1,2.1-1.2c0.3-0.1,0.5-0.2,0.5-0.2l0,0   c-4.2-2.2-7.3-2.2-9.7-0.2c-0.6,0.5-0.9,1.3-1,2.3c-0.1,1.4,0.4,2.9,1.4,3.9l0.1,0.1c1.5,1.5,3.4,2.3,5.7,2.3   c4.3,0.1,8.8-2.6,10.2-4l0.2-0.2l0.7,0.7L58,165c-2.3,2.3-4.8,4-7.3,4.7c-6.8,2-9.7,6.4-8.9,13.5c7.1,0.8,11.5-2.1,13.5-8.9   c0.8-2.4,2.5-5,4.7-7.3l0.2-0.2l0.7,0.7l-0.2,0.2c-1.4,1.4-4,5.9-4,10.2c0,2.3,0.8,4.2,2.3,5.7l0.1,0.1c1,0.9,2.5,1.5,3.9,1.4   c1-0.1,1.8-0.4,2.3-1c2-2.5,1.9-5.5-0.2-9.7l0,0c0,0-0.1,0.2-0.2,0.5c-0.2,0.7-0.6,1.8-1.2,2.1c-0.5,0.3-1.1,0.4-1.7,0.2   c-0.7-0.3-1.2-1.2-1.5-2.4c-0.4-2.4,0.5-3.6,1.3-4.7c0.2-0.2,0.4-0.5,0.5-0.7l0.1-0.2l1.1,1.1l1-1l-2.3-2.3l0.2-0.1   c3.2-1.9,7.7-1.4,10.2,1.1c2.2,2.2,2.9,5.6,1.7,8.7c3.1-1.2,6.5-0.5,8.7,1.7c2.5,2.5,3,7,1.1,10.2l-0.1,0.2l-2.3-2.3l-1,1l1.1,1.1   l-0.2,0.1c-0.2,0.1-0.4,0.3-0.7,0.5l0,0c-1.1,0.8-2.3,1.7-4.7,1.3c-1.3-0.2-2.1-0.7-2.4-1.5c-0.2-0.5-0.2-1.2,0.2-1.7   c0.3-0.6,1.5-1,2.1-1.2c0.3-0.1,0.5-0.2,0.5-0.2c-4.2-2.2-7.3-2.2-9.8-0.2c-0.6,0.5-0.9,1.3-1,2.3c-0.1,1.4,0.4,2.9,1.4,3.9   l0.1,0.1c1.5,1.5,3.4,2.3,5.7,2.3c4.3,0.1,8.8-2.6,10.2-4l0.2-0.2l0.7,0.7l-0.2,0.2c-2.3,2.3-4.8,4-7.3,4.7   c-6.8,2-9.7,6.4-8.9,13.5c7.1,0.8,11.5-2.1,13.5-8.9c0.8-2.4,2.5-5,4.7-7.3l0.2-0.2l0.7,0.7l-0.2,0.2c-1.4,1.4-4,5.9-4,10.2   c0,2.3,0.8,4.2,2.3,5.7l0.1,0.1c1,0.9,2.5,1.5,3.9,1.4c1-0.1,1.8-0.4,2.3-1c2-2.5,1.9-5.5-0.2-9.7l0,0c0,0-0.1,0.2-0.2,0.5   c-0.2,0.7-0.6,1.8-1.2,2.1c-0.5,0.3-1.1,0.4-1.7,0.2c-0.7-0.3-1.2-1.2-1.5-2.4c-0.4-2.4,0.5-3.6,1.3-4.7l0,0   c0.2-0.2,0.3-0.4,0.5-0.7l0.1-0.2l1.1,1.1l1-1l-2.3-2.3l0.2-0.1c3.2-1.9,7.7-1.4,10.2,1.1c2.2,2.2,2.9,5.7,1.7,8.7   c3.1-1.2,6.5-0.5,8.7,1.7c2.5,2.5,3,7,1.1,10.2l-0.1,0.2l-2.3-2.3l-1,1l1.1,1.1l-0.2,0.1c-0.2,0.2-0.5,0.3-0.7,0.5   c-1.1,0.8-2.3,1.7-4.7,1.3c-1.3-0.2-2.1-0.7-2.4-1.5c-0.2-0.5-0.2-1.2,0.2-1.7c0.3-0.6,1.5-1,2.1-1.2c0.3-0.1,0.5-0.2,0.5-0.2l0,0   c-4.2-2.2-7.3-2.2-9.7-0.2c-0.6,0.5-0.9,1.3-1,2.3c-0.1,1.4,0.4,2.9,1.4,3.9l0.1,0.1c1.5,1.5,3.4,2.3,5.7,2.3   c4.3,0.1,8.8-2.6,10.2-4l0.2-0.2l0.7,0.7l-0.2,0.2c-2.3,2.3-4.8,4-7.3,4.7c-6.8,2-9.7,6.4-8.9,13.5c7.1,0.8,11.5-2.1,13.5-8.9   c0.8-2.4,2.5-5,4.7-7.3l0.2-0.2l0.7,0.7l-0.2,0.2c-1.4,1.4-4,5.9-4,10.2c0,2.3,0.9,4.3,2.4,5.8c1,0.9,2.5,1.5,3.9,1.4   c1-0.1,1.8-0.4,2.3-1c2-2.5,1.9-5.5-0.2-9.7l0,0c0,0-0.1,0.2-0.2,0.5c-0.2,0.7-0.6,1.8-1.2,2.1c-0.5,0.3-1.1,0.4-1.7,0.2   c-0.7-0.3-1.2-1.2-1.5-2.4c-0.4-2.4,0.5-3.6,1.3-4.7c0.2-0.2,0.4-0.5,0.5-0.7l0.1-0.2l1.1,1.1l1-1l-2.3-2.3l0.2-0.1   c3.2-1.9,7.7-1.4,10.2,1.1c2.2,2.2,2.9,5.6,1.7,8.7c3.1-1.2,6.5-0.5,8.7,1.7c2.5,2.5,3,7,1.1,10.2l-0.1,0.2l-2.3-2.3l-1,1l1.1,1.1   l-0.2,0.1c-0.2,0.1-0.4,0.3-0.7,0.5l0,0c-1.1,0.8-2.3,1.7-4.7,1.3c-1.3-0.2-2.1-0.7-2.4-1.5c-0.2-0.5-0.2-1.2,0.2-1.7   c0.3-0.6,1.5-1,2.1-1.2c0.3-0.1,0.5-0.2,0.5-0.2c-4.2-2.2-7.3-2.2-9.8-0.2c-0.6,0.5-0.9,1.3-1,2.3c-0.1,1.4,0.4,2.9,1.4,3.9   l0.1,0.1c1.5,1.5,3.4,2.3,5.7,2.3c4.3,0.1,8.8-2.6,10.2-4l0.2-0.2l0.7,0.7l-0.2,0.2c-2.3,2.3-4.8,4-7.3,4.7   c-6.8,2-9.7,6.4-8.9,13.5c7.1,0.8,11.5-2.1,13.5-8.9c0.8-2.4,2.5-5,4.7-7.3l0.2-0.2l0.7,0.7l-0.2,0.2c-1.4,1.4-4,5.9-4,10.2   c0,2.3,0.8,4.2,2.3,5.7c0,0,0,0,0.1,0.1c1,0.9,2.5,1.5,3.9,1.4c1-0.1,1.8-0.4,2.3-1c2-2.5,1.9-5.5-0.2-9.7l0,0c0,0-0.1,0.2-0.2,0.5   c-0.2,0.7-0.6,1.8-1.2,2.1c-0.5,0.3-1.1,0.4-1.7,0.2c-0.7-0.3-1.2-1.2-1.5-2.4c-0.4-2.4,0.5-3.6,1.3-4.7c0.2-0.2,0.3-0.5,0.5-0.7   l0.1-0.2l1.1,1.1l1-1L140,245l0.2-0.1c3.2-1.9,7.7-1.4,10.2,1.1c2.2,2.2,2.9,5.7,1.7,8.7c3.1-1.2,6.5-0.5,8.7,1.7   c2.5,2.5,3,7,1.1,10.2l-0.1,0.2l-2.3-2.3l-1,1l1.1,1.1l-0.2,0.1c-0.2,0.2-0.5,0.3-0.7,0.5c-1.1,0.8-2.3,1.7-4.7,1.3   c-1.3-0.2-2.1-0.7-2.4-1.5c-0.2-0.5-0.2-1.2,0.2-1.7c0.3-0.6,1.5-1,2.1-1.2c0.3-0.1,0.5-0.2,0.5-0.2l0,0c-4.2-2.2-7.3-2.2-9.7-0.2   c-0.6,0.5-0.9,1.3-1,2.3c-0.1,1.4,0.4,2.9,1.4,3.9l0.1,0.1c1.5,1.5,3.4,2.3,5.7,2.3c4.3,0.1,8.8-2.6,10.2-4l0.2-0.2l0.7,0.7   l-0.2,0.2c-2.3,2.3-4.8,4-7.3,4.7c-6.8,2-9.7,6.4-8.9,13.5c7.1,0.8,11.5-2.1,13.5-8.9c0.8-2.4,2.5-5,4.7-7.3l0.2-0.2l0.7,0.7   l-0.2,0.2c-1.4,1.4-4,5.9-4,10.2c0,2.3,0.8,4.2,2.3,5.7l0.1,0.1c1,0.9,2.5,1.5,3.9,1.4c1-0.1,1.8-0.4,2.3-1c2-2.5,1.9-5.5-0.2-9.7   l0,0c0,0-0.1,0.2-0.2,0.5c-0.2,0.7-0.6,1.8-1.2,2.1c-0.5,0.3-1.1,0.4-1.7,0.2c-0.7-0.3-1.2-1.2-1.5-2.4c-0.4-2.4,0.5-3.6,1.3-4.7   l0,0c0.2-0.2,0.3-0.4,0.5-0.7l0.1-0.2l1.1,1.1l1-1L166,271l0.2-0.1c3.2-1.9,7.7-1.4,10.2,1.1c2.2,2.2,2.9,5.6,1.7,8.7   c3.1-1.2,6.5-0.5,8.7,1.7c2.5,2.5,3,7,1.1,10.2l-0.1,0.2l-2.3-2.3l-1,1l1.1,1.1l-0.2,0.1c-0.2,0.1-0.4,0.3-0.7,0.5l0,0   c-1.1,0.8-2.3,1.7-4.7,1.3c-1.3-0.2-2.1-0.7-2.4-1.5c-0.2-0.5-0.2-1.2,0.2-1.7c0.3-0.6,1.5-1,2.1-1.2c0.3-0.1,0.5-0.2,0.5-0.2l0,0   c-4.2-2.2-7.3-2.2-9.7-0.2c-0.6,0.5-0.9,1.3-1,2.3c-0.1,1.4,0.4,2.9,1.4,3.9l0.1,0.1c1.5,1.5,3.4,2.3,5.7,2.3   c4.3,0.1,8.8-2.6,10.2-4l0.2-0.2l0.7,0.7l-0.2,0.2c-2.3,2.3-4.8,4-7.3,4.7c-6.8,2-9.7,6.4-8.9,13.5c7.1,0.8,11.5-2.1,13.5-8.9   c0.8-2.4,2.5-5,4.7-7.3l0.2-0.2l0.7,0.7L190,297c-1.4,1.4-4,5.9-4,10.2c0,2.3,0.8,4.2,2.3,5.7l0.1,0.1c1,0.9,2.5,1.5,3.9,1.4   c1-0.1,1.8-0.4,2.3-1c2-2.5,1.9-5.5-0.2-9.7l0,0c0,0-0.1,0.2-0.2,0.5c-0.2,0.7-0.6,1.8-1.2,2.1c-0.5,0.3-1.1,0.4-1.7,0.2   c-0.7-0.3-1.2-1.2-1.5-2.4c-0.4-2.4,0.5-3.6,1.3-4.7c0.2-0.2,0.4-0.5,0.5-0.7l0.1-0.2l1.1,1.1l1-1l-2.3-2.3l0.2-0.1   c3.2-1.9,7.7-1.4,10.2,1.1c2.2,2.2,2.9,5.6,1.7,8.7c3.1-1.2,6.5-0.5,8.7,1.7c2.5,2.5,3,7,1.1,10.2l-0.1,0.2l-2.3-2.3l-1,1l1.1,1.1   l-0.2,0.1c-0.2,0.1-0.4,0.3-0.7,0.5l0,0c-1.1,0.8-2.3,1.7-4.7,1.3c-1.3-0.2-2.1-0.7-2.4-1.5c-0.2-0.5-0.2-1.2,0.2-1.7   c0.3-0.6,1.5-1,2.1-1.2c0.3-0.1,0.5-0.2,0.5-0.2c-4.2-2.2-7.3-2.2-9.8-0.2c-0.6,0.5-0.9,1.3-1,2.3c-0.1,1.4,0.4,2.9,1.4,3.9   l0.1,0.1c1.5,1.5,3.4,2.3,5.7,2.3c4.3,0.1,8.8-2.6,10.2-4l0.2-0.2l0.7,0.7l-0.2,0.2c-2.3,2.3-4.8,4-7.3,4.7   c-6.8,2-9.7,6.4-8.9,13.5c7.1,0.8,11.5-2.1,13.5-8.9c0.8-2.4,2.5-5,4.7-7.3l0.2-0.2l0.7,0.7l-0.2,0.2c-1.4,1.4-4,5.9-4,10.2   c0,2.3,0.8,4.2,2.3,5.7l0.1,0.1c1,0.9,2.5,1.5,3.9,1.4c1-0.1,1.8-0.4,2.3-1c2-2.5,1.9-5.5-0.2-9.7l0,0c0,0-0.1,0.2-0.2,0.5   c-0.2,0.7-0.6,1.8-1.2,2.1c-0.5,0.3-1.1,0.4-1.7,0.2c-0.7-0.3-1.2-1.2-1.5-2.4c-0.4-2.4,0.5-3.6,1.3-4.7l0,0   c0.2-0.2,0.3-0.4,0.5-0.7l0.1-0.2l1.1,1.1l1-1l-2.3-2.3l0.2-0.1c3.2-1.9,7.7-1.4,10.2,1.1c2.2,2.2,2.9,5.7,1.7,8.7   c3.1-1.2,6.5-0.5,8.7,1.7c2.5,2.5,3,7,1.1,10.2l-0.1,0.2l-2.3-2.3l-1,1l1.1,1.1l-0.2,0.1c-0.2,0.2-0.5,0.3-0.7,0.5   c-1.1,0.8-2.3,1.7-4.7,1.3c-1.3-0.2-2.1-0.7-2.4-1.5c-0.2-0.5-0.2-1.2,0.2-1.7c0.3-0.6,1.5-1,2.1-1.2c0.3-0.1,0.5-0.2,0.5-0.2l0,0   c-4.2-2.2-7.3-2.2-9.7-0.2c-0.6,0.5-0.9,1.3-1,2.3c-0.1,1.4,0.4,2.9,1.4,3.9l0.1,0.1c1.5,1.5,3.4,2.3,5.7,2.3   c4.3,0.1,8.8-2.6,10.2-4l0.2-0.2l0.7,0.7L239,346c-2.3,2.3-4.8,4-7.3,4.7c-6.8,2-9.7,6.4-8.9,13.5c7.1,0.8,11.5-2.1,13.5-8.9   c0.8-2.4,2.5-5,4.7-7.3l0.2-0.2l0.7,0.7l-0.2,0.2c-1.4,1.4-4,5.9-4,10.2c0,2.3,0.8,4.2,2.3,5.7l0.1,0.1c1,0.9,2.5,1.5,3.9,1.4   c1-0.1,1.8-0.4,2.3-1c2-2.5,1.9-5.5-0.2-9.7l0,0c0,0-0.1,0.2-0.2,0.5c-0.2,0.7-0.6,1.8-1.2,2.1c-0.5,0.3-1.1,0.4-1.7,0.2   c-0.7-0.3-1.2-1.1-1.5-2.4c-0.4-2.4,0.5-3.6,1.3-4.7c0.2-0.2,0.4-0.5,0.5-0.7l0.1-0.2l1.1,1.1l1-1l-2.3-2.3l0.2-0.1   c3.2-1.9,7.7-1.4,10.2,1.1c2.2,2.2,2.9,5.6,1.7,8.7c3.1-1.2,6.5-0.5,8.7,1.7c2.5,2.5,3,7,1.1,10.2l-0.1,0.2l-2.3-2.3l-1,1l1.1,1.1   l-0.2,0.1c-0.2,0.1-0.4,0.3-0.7,0.5l0,0c-1.1,0.8-2.3,1.7-4.7,1.3c-1.3-0.2-2.1-0.7-2.4-1.5c-0.2-0.5-0.2-1.2,0.2-1.7   c0.3-0.6,1.5-1,2.1-1.2c0.3-0.1,0.5-0.2,0.5-0.2c-4.2-2.2-7.3-2.2-9.8-0.2c-0.6,0.5-0.9,1.3-1,2.3c-0.1,1.4,0.4,2.9,1.4,3.9   l0.1,0.1c1.5,1.5,3.4,2.3,5.7,2.3c4.3,0.1,8.8-2.6,10.2-4l0.2-0.2l0.7,0.7l-0.2,0.2c-2.3,2.3-4.8,4-7.3,4.7   c-6.8,2-9.7,6.4-8.9,13.5c7.1,0.8,11.5-2.1,13.5-8.9c0.8-2.4,2.5-5,4.7-7.3l0.2-0.2l0.7,0.7l-0.2,0.2c-1.4,1.4-4,5.9-4,10.2   c0,2.3,0.8,4.2,2.3,5.7l0.1,0.1c1,0.9,2.5,1.5,3.9,1.4c1-0.1,1.8-0.4,2.3-1c2-2.5,1.9-5.5-0.2-9.7l0,0c0,0-0.1,0.2-0.2,0.5   c-0.2,0.7-0.6,1.8-1.2,2.1c-0.5,0.3-1.1,0.4-1.7,0.2c-0.7-0.3-1.2-1.2-1.5-2.4c-0.4-2.4,0.5-3.6,1.3-4.7c0.2-0.2,0.3-0.5,0.5-0.7   l0.1-0.2l1.1,1.1l1-1l-2.3-2.3l0.2-0.1c3.2-1.9,7.7-1.4,10.2,1.1c2.2,2.2,2.9,5.7,1.7,8.7c3.1-1.2,6.5-0.5,8.7,1.7   c2.5,2.5,3,7,1.1,10.2l-0.1,0.2l-2.3-2.3l-1,1l1.1,1.1l-0.2,0.1c-0.2,0.2-0.5,0.3-0.7,0.5c-1.1,0.8-2.3,1.7-4.7,1.3   c-1.3-0.2-2.1-0.7-2.4-1.5c-0.2-0.5-0.2-1.2,0.2-1.7c0.3-0.6,1.5-1,2.1-1.2c0.3-0.1,0.5-0.2,0.5-0.2l0,0c-4.2-2.2-7.3-2.2-9.7-0.2   c-0.6,0.5-0.9,1.3-1,2.3c-0.1,1.4,0.4,2.9,1.4,3.9l0.1,0.1c1.5,1.5,3.4,2.3,5.7,2.3c4.3,0.1,8.8-2.6,10.2-4l0.2-0.2l0.7,0.7   l-0.2,0.2c-2.3,2.3-4.8,4-7.3,4.7c-6.8,2-9.7,6.4-8.9,13.5c7.1,0.8,11.5-2.1,13.5-8.9c0.8-2.4,2.5-5,4.7-7.3l0.2-0.2l0.7,0.7   l-0.2,0.2c-1.4,1.4-4,5.9-4,10.2c0,2.3,0.8,4.2,2.3,5.7c0,0,0,0,0.1,0.1c1,0.9,2.5,1.5,3.9,1.4c1-0.1,1.8-0.4,2.3-1   c2-2.5,1.9-5.5-0.2-9.7l0,0c0,0-0.1,0.2-0.2,0.5c-0.2,0.7-0.6,1.8-1.2,2.1c-0.5,0.3-1.1,0.4-1.7,0.2c-0.7-0.3-1.2-1.2-1.5-2.4   c-0.4-2.4,0.5-3.6,1.3-4.7l0,0c0.2-0.2,0.3-0.4,0.5-0.7l0.1-0.2l1.1,1.1l1-1l-2.3-2.3l0.2-0.1c3.2-1.9,7.7-1.4,10.2,1.1   c2.2,2.2,2.9,5.6,1.7,8.7c3.1-1.2,6.5-0.5,8.7,1.7c2.5,2.5,3,7,1.1,10.2l-0.1,0.2l-2.3-2.3l-1,1l1.1,1.1l-0.2,0.1   c-0.2,0.1-0.4,0.3-0.7,0.5l0,0c-1.1,0.8-2.3,1.7-4.7,1.3c-1.3-0.2-2.1-0.7-2.4-1.5c-0.2-0.5-0.2-1.2,0.2-1.7c0.3-0.6,1.5-1,2.1-1.2   c0.3-0.1,0.5-0.2,0.5-0.2l0,0c-4.2-2.2-7.3-2.2-9.7-0.2c-0.6,0.5-0.9,1.3-1,2.3c-0.1,1.4,0.4,2.9,1.4,3.9l0.1,0.1   c1.5,1.5,3.4,2.3,5.7,2.3c4.3,0.1,8.8-2.6,10.2-4l0.2-0.2l0.7,0.7l-0.2,0.2c-2.3,2.3-4.8,4-7.3,4.7c-6.8,2-9.7,6.4-8.9,13.5   c7.1,0.8,11.5-2.1,13.5-8.9c0.8-2.4,2.5-5,4.7-7.3l0.2-0.2l0.7,0.7l-0.2,0.2c-1.4,1.4-4,5.9-4,10.2c0,2.3,0.8,4.2,2.3,5.7l0.1,0.1   c1,0.9,2.5,1.5,3.9,1.4c1-0.1,1.8-0.4,2.3-1c2-2.5,1.9-5.5-0.2-9.7l0,0c0,0-0.1,0.2-0.2,0.5c-0.2,0.7-0.6,1.8-1.2,2.1   c-0.5,0.3-1.1,0.4-1.7,0.2c-0.7-0.3-1.2-1.2-1.5-2.4c-0.4-2.4,0.5-3.6,1.3-4.7c0.2-0.2,0.4-0.5,0.5-0.7l0.1-0.2l1.1,1.1l1-1   l-2.3-2.3l0.2-0.1c3.2-1.9,7.7-1.4,10.2,1.1c2.2,2.2,2.9,5.6,1.7,8.7c3.1-1.2,6.5-0.5,8.7,1.7c2.5,2.5,3,7,1.1,10.2l-0.1,0.2   l-2.3-2.3l-1,1l1.1,1.1l-0.2,0.1c-0.2,0.1-0.4,0.3-0.7,0.5l0,0c-1.1,0.8-2.3,1.7-4.7,1.3c-1.3-0.2-2.1-0.7-2.4-1.5   c-0.2-0.5-0.2-1.2,0.2-1.7c0.3-0.6,1.5-1,2.1-1.2c0.3-0.1,0.5-0.2,0.5-0.2c-4.2-2.2-7.3-2.2-9.8-0.2c-0.6,0.5-0.9,1.3-1,2.3   c-0.1,1.4,0.4,2.9,1.4,3.9l0.1,0.1c1.5,1.5,3.4,2.3,5.7,2.3c4.3,0.1,8.8-2.6,10.2-4l0.2-0.2l0.7,0.7l-0.2,0.2   c-2.3,2.3-4.8,4-7.3,4.7c-6.8,2-9.7,6.4-8.9,13.5c7.1,0.8,11.5-2.1,13.5-8.9c0.8-2.4,2.5-5,4.7-7.3l0.2-0.2l0.7,0.7l-0.2,0.2   c-1.4,1.4-4,5.9-4,10.2c0,2.3,0.8,4.2,2.3,5.7l0.1,0.1c1,0.9,2.5,1.5,3.9,1.4c1-0.1,1.8-0.4,2.3-1c2-2.5,1.9-5.5-0.2-9.7l0,0   c0,0-0.1,0.2-0.2,0.5c-0.2,0.7-0.6,1.8-1.2,2.1c-0.5,0.3-1.1,0.4-1.7,0.2c-0.7-0.3-1.2-1.2-1.5-2.4c-0.4-2.4,0.5-3.6,1.3-4.7l0,0   c0.2-0.2,0.3-0.4,0.5-0.7l0.1-0.2l1.1,1.1l1-1L347,452l0.2-0.1c3.2-1.9,7.7-1.4,10.2,1.1c2.2,2.2,2.9,5.7,1.7,8.7   c3.1-1.2,6.5-0.5,8.7,1.7c2.5,2.5,3,7,1.1,10.2l-0.1,0.2l-2.3-2.3l-1,1l1.1,1.1l-0.2,0.1c-0.2,0.2-0.5,0.3-0.7,0.5   c-1.1,0.8-2.3,1.7-4.7,1.3c-1.3-0.2-2.1-0.7-2.4-1.5c-0.2-0.5-0.2-1.2,0.2-1.7c0.3-0.6,1.5-1,2.1-1.2c0.3-0.1,0.5-0.2,0.5-0.2l0,0   c-4.2-2.2-7.3-2.2-9.7-0.2c-0.6,0.5-0.9,1.3-1,2.3c-0.1,1.4,0.4,2.9,1.4,3.9l0.1,0.1c1.5,1.5,3.4,2.3,5.7,2.3   c4.3,0.1,8.8-2.6,10.2-4l0.2-0.2l0.7,0.7l-0.2,0.2c-2.3,2.3-4.8,4-7.3,4.7c-6.8,2-9.7,6.4-8.9,13.5c7.1,0.8,11.5-2.1,13.5-8.9   c0.8-2.4,2.5-5,4.7-7.3l0.2-0.2l0.7,0.7l-0.2,0.2c-1.4,1.4-4,5.9-4,10.2c0,2.3,0.9,4.3,2.4,5.8c1,0.9,2.5,1.5,3.9,1.4   c1-0.1,1.8-0.4,2.3-1c2-2.5,1.9-5.5-0.2-9.7l0,0c0,0-0.1,0.2-0.2,0.5c-0.2,0.7-0.6,1.8-1.2,2.1c-0.5,0.3-1.1,0.4-1.7,0.2   c-0.7-0.3-1.2-1.2-1.5-2.4c-0.4-2.4,0.5-3.6,1.3-4.7c0.2-0.2,0.4-0.5,0.5-0.7l0.1-0.2l1.1,1.1l1-1L373,478l0.2-0.1   c3.2-1.9,7.7-1.4,10.2,1.1c2.2,2.2,2.9,5.6,1.7,8.7c3.1-1.2,6.5-0.5,8.7,1.7c2.5,2.5,3,7,1.1,10.2l-0.1,0.2l-2.3-2.3l-1,1l1.1,1.1   l-0.2,0.1c-0.2,0.1-0.4,0.3-0.7,0.5l0,0c-1.1,0.8-2.3,1.7-4.7,1.3c-1.3-0.2-2.1-0.7-2.4-1.5c-0.2-0.5-0.2-1.2,0.2-1.7   c0.3-0.6,1.5-1,2.1-1.2c0.3-0.1,0.5-0.2,0.5-0.2c-4.2-2.2-7.3-2.2-9.8-0.2c-0.6,0.5-0.9,1.3-1,2.3c-0.1,1.4,0.4,2.9,1.4,3.9   l0.1,0.1c1.5,1.5,3.4,2.3,5.7,2.3c4.3,0.1,8.8-2.6,10.2-4l0.2-0.2l0.7,0.7l-0.2,0.2c-2.3,2.3-4.8,4-7.3,4.7   c-6.8,2-9.7,6.4-8.9,13.5c7.1,0.8,11.5-2.1,13.5-8.9c0.8-2.4,2.5-5,4.7-7.3l0.2-0.2l0.7,0.7L397,504c-1.4,1.4-4,5.9-4,10.2   c0,2.3,0.8,4.2,2.3,5.7c0,0,0,0,0.1,0.1c1,0.9,2.5,1.5,3.9,1.4c1-0.1,1.8-0.4,2.3-1c2-2.5,1.9-5.5-0.2-9.7l0,0c0,0-0.1,0.2-0.2,0.5   c-0.2,0.7-0.6,1.8-1.2,2.1c-0.5,0.3-1.1,0.4-1.7,0.2c-0.7-0.3-1.2-1.2-1.5-2.4c-0.4-2.4,0.5-3.6,1.3-4.7c0.2-0.2,0.3-0.5,0.5-0.7   l0.1-0.2l1.1,1.1l1-1l-2.3-2.3l0.2-0.1c3.2-1.9,7.7-1.4,10.2,1.1c2.2,2.2,2.9,5.7,1.7,8.7c3.1-1.2,6.5-0.5,8.7,1.7   c2.5,2.5,3,7,1.1,10.2l-0.1,0.2l-2.3-2.3l-1,1l1.1,1.1l-0.2,0.1c-0.2,0.2-0.5,0.3-0.7,0.5c-1.1,0.8-2.3,1.7-4.7,1.3   c-1.3-0.2-2.1-0.7-2.4-1.5c-0.2-0.5-0.2-1.2,0.2-1.7c0.3-0.6,1.5-1,2.1-1.2c0.3-0.1,0.5-0.2,0.5-0.2l0,0c-4.2-2.2-7.3-2.2-9.7-0.2   c-0.6,0.5-0.9,1.3-1,2.3c-0.1,1.4,0.4,2.9,1.4,3.9l0.1,0.1c1.5,1.5,3.4,2.3,5.7,2.3c4.3,0.1,8.8-2.6,10.2-4l0.2-0.2l0.7,0.7   l-0.2,0.2c-2.3,2.3-4.8,4-7.3,4.7c-6.8,2-9.7,6.4-8.9,13.5c7.1,0.8,11.5-2.1,13.5-8.9c0.8-2.4,2.5-5,4.7-7.3l0.2-0.2l0.7,0.7   L423,530c-1.4,1.4-4,5.9-4,10.2c0,2.3,0.8,4.2,2.3,5.7l0.1,0.1c1,0.9,2.5,1.5,3.9,1.4c1-0.1,1.8-0.4,2.3-1c2-2.5,1.9-5.5-0.2-9.7   l0,0c0,0-0.1,0.2-0.2,0.5c-0.2,0.7-0.6,1.8-1.2,2.1c-0.5,0.3-1.1,0.4-1.7,0.2c-0.7-0.3-1.2-1.2-1.5-2.4c-0.4-2.4,0.5-3.6,1.3-4.7   l0,0c0.2-0.2,0.3-0.4,0.5-0.7l0.1-0.2l1.1,1.1l1-1l-2.3-2.3l0.2-0.1c3.2-1.9,7.7-1.4,10.2,1.1c2.2,2.2,2.9,5.6,1.7,8.7   c3.1-1.2,6.5-0.5,8.7,1.7c2.5,2.5,3,7,1.1,10.2l-0.1,0.2l-2.3-2.3l-1,1l1.1,1.1l-0.2,0.1c-0.2,0.1-0.4,0.3-0.7,0.5l0,0   c-1.1,0.8-2.3,1.7-4.7,1.3c-1.3-0.2-2.1-0.7-2.4-1.5c-0.2-0.5-0.2-1.2,0.2-1.7c0.3-0.6,1.5-1,2.1-1.2c0.3-0.1,0.5-0.2,0.5-0.2l0,0   c-4.2-2.2-7.3-2.2-9.7-0.2c-0.6,0.5-0.9,1.3-1,2.3c-0.1,1.4,0.4,2.9,1.4,3.9l0.1,0.1c1.5,1.5,3.4,2.3,5.7,2.3   c4.3,0.1,8.8-2.6,10.2-4l0.2-0.2l0.7,0.7L446,553c-2.3,2.3-4.8,4-7.3,4.7c-6.8,2-9.7,6.4-8.9,13.5c7.1,0.8,11.5-2.1,13.5-8.9   c0.8-2.4,2.5-5,4.7-7.3l0.2-0.2l0.7,0.7l-0.2,0.2c-1.4,1.4-4,5.9-4,10.2c0,1.2,0.3,2.3,0.7,3.3c1.6-1.3,3.2-2.7,4.7-4   c-0.1,0-0.1,0-0.2,0c-0.7-0.3-1.2-1.2-1.5-2.4c-0.4-2.4,0.5-3.6,1.3-4.7c0.2-0.2,0.4-0.5,0.5-0.7l0.1-0.2l1.1,1.1l1-1l-2.3-2.3   l0.2-0.1c3.2-1.9,7.7-1.4,10.2,1.1c0,0,0,0,0.1,0.1c3.5-3.2,7-6.5,10.5-9.8L217.2,292.2z"/>
	<path class="st1" d="M1.5,1.5v62.2l476.2,476.2c20-19.9,39.3-42.5,56.4-68L63.7,1.5H1.5z"/>
</g>
<radialGradient id="path2875_2_" cx="-468.8243" cy="-333.5426" r="299.8217" gradientTransform="matrix(1.3534 0 0 1.3491 856.4473 669.413)" gradientUnits="userSpaceOnUse">
	<stop offset="0" style="stop-color:#FFFFFF;stop-opacity:0.3137"/>
	<stop offset="0.19" style="stop-color:#FFFFFF;stop-opacity:0.251"/>
	<stop offset="0.6" style="stop-color:#6B6B6B;stop-opacity:0.1255"/>
	<stop offset="1" style="stop-color:#000000;stop-opacity:0.1255"/>
</radialGradient>
<path id="path2875_3_" class="st2" d="M299.9,657.9c0,0,298.6-112.3,298.6-397.8V1.5H1.5v258.6C1.5,545.6,299.9,657.9,299.9,657.9z"/>
</svg>