<?xml version="1.0" encoding="UTF-8" standalone="no"?>
<!-- Generator: Adobe Illustrator 19.2.0, SVG Export Plug-In . SVG Version: 6.00 Build 0)  -->

<svg
   version="1.1"
   id="svg2"
   inkscape:export-filename="/Users/olivier/Desktop/Blason Rouge/Blason_Vide_3D.png"
   inkscape:export-xdpi="144"
   inkscape:export-ydpi="144"
   inkscape:output_extension="org.inkscape.output.svg.inkscape"
   inkscape:version="1.4 (e7c3feb100, 2024-10-09)"
   sodipodi:docname="blason BR - symbole.svg"
   sodipodi:version="0.32"
   x="0px"
   y="0px"
   viewBox="0 0 600 659.5"
   style="enable-background:new 0 0 600 659.5;"
   xml:space="preserve"
   xmlns:inkscape="http://www.inkscape.org/namespaces/inkscape"
   xmlns:sodipodi="http://sodipodi.sourceforge.net/DTD/sodipodi-0.dtd"
   xmlns="http://www.w3.org/2000/svg"
   xmlns:svg="http://www.w3.org/2000/svg"><defs
   id="defs6" />
<style
   type="text/css"
   id="style1">
	.st0{fill:#E20909;stroke:#000000;stroke-width:3;stroke-miterlimit:10;}
	.st1{fill:#FFFFFF;stroke:#990000;stroke-miterlimit:10;}
	.st2{fill:url(#path2875_2_);stroke:#000000;stroke-width:3.0003;stroke-miterlimit:10;}
</style>

<sodipodi:namedview
   bordercolor="#666666"
   borderopacity="1.0"
   gridtolerance="10.0"
   guidetolerance="10.0"
   height="660px"
   id="base"
   inkscape:current-layer="layer1"
   inkscape:cx="307.83434"
   inkscape:cy="254.96079"
   inkscape:guide-bbox="true"
   inkscape:pageopacity="0.0"
   inkscape:pageshadow="2"
   inkscape:window-height="1035"
   inkscape:window-maximized="0"
   inkscape:window-width="1910"
   inkscape:window-x="5"
   inkscape:window-y="5"
   inkscape:zoom="9.2484808"
   objecttolerance="10.0"
   pagecolor="#ffffff"
   showgrid="false"
   showguides="true"
   inkscape:showpageshadow="2"
   inkscape:pagecheckerboard="0"
   inkscape:deskcolor="#d1d1d1">
	</sodipodi:namedview>
<desc
   id="desc4">SVG coat of arms</desc>


<g
   inkscape:groupmode="layer"
   id="layer1"
   inkscape:label="FOND"
   style="enable-background:new 0 0 600 659.5;fill:#ff2d2d;fill-opacity:1"><rect
     style="fill:#ff3b3b;fill-opacity:1;stroke:#2e0517;stroke-width:2.5;stroke-linecap:round;stroke-linejoin:round;paint-order:markers stroke fill"
     id="rect6"
     width="600"
     height="659.5"
     x="0"
     y="0" /></g><g
   inkscape:groupmode="layer"
   id="layer2"
   inkscape:label="TEST"
   style="enable-background:new 0 0 600 659.5"><path
     class="st1"
     d="m 287.01095,269.09401 c 1.39374,-3.16282 4.40614,-5.15094 7.64111,-5.15419 3.67608,-0.004 7.35513,2.9335 8.31466,6.68214 l 0.0738,0.22051 -3.38202,0.003 9.5e-4,1.47044 1.61746,-9.5e-4 -0.0733,0.22064 c -0.0732,0.22064 -0.073,0.51472 -0.14616,0.88241 v 0 c -0.21914,1.39714 -0.43816,2.94131 -2.49529,4.4138 -1.10203,0.80985 -2.05759,1.03138 -2.86669,0.66458 -0.51488,-0.22005 -1.03004,-0.73418 -1.10423,-1.3958 -0.22123,-0.66147 0.36576,-1.83841 0.65926,-2.42689 0.14676,-0.29423 0.22004,-0.51487 0.22004,-0.51487 v 0 c -4.70389,1.47516 -6.9808,3.75663 -7.27164,6.99188 -0.0727,0.80882 0.29571,1.61718 0.95823,2.42526 0.95689,1.10186 2.42804,1.83561 3.8985,1.83413 l 0.14703,3.5e-4 c 2.20565,-0.003 4.18993,-0.81295 5.87924,-2.50564 3.23185,-3.09117 4.54993,-8.38606 4.54785,-10.44467 l -7e-4,-0.29408 1.02929,-3.8e-4 7.2e-4,0.2941 c 0.003,3.382 -0.58168,6.47049 -1.90273,8.82453 -3.52255,6.47346 -2.41433,11.83943 3.39854,16.46549 5.80357,-4.63771 6.90101,-10.00592 3.36546,-16.47229 -1.17869,-2.35151 -1.84357,-5.51228 -1.92041,-8.82069 l -7.1e-4,-0.29409 1.02929,-3.8e-4 7.1e-4,0.29409 c 9.6e-4,2.0586 1.40421,7.27726 4.56883,10.43551 1.69269,1.6893 3.67859,2.49606 5.88425,2.49386 l 0.14704,3.4e-4 c 1.39683,-0.0749 2.94013,-0.73817 3.8948,-1.84195 0.66088,-0.80941 1.0277,-1.61852 0.95335,-2.42718 -0.37092,-3.30812 -2.65224,-5.43795 -7.28566,-6.97726 v 0 c 0,0 0.0736,0.22048 0.22106,0.51442 0.3683,0.66132 0.88404,1.76363 0.66414,2.42556 -0.14643,0.58832 -0.51354,1.10335 -1.10142,1.39801 -0.73491,0.29484 -1.76451,9.5e-4 -2.86802,-0.65882 -2.06009,-1.46837 -2.2822,-3.0121 -2.50416,-4.40879 -7.1e-4,-0.29409 -0.0742,-0.66163 -0.14793,-0.8821 l -0.0736,-0.2205 1.61749,-9.5e-4 -9.5e-4,-1.47043 -3.382,0.003 0.0733,-0.22065 c 0.95201,-3.75058 4.62514,-6.69514 8.30124,-6.69882 3.23497,-0.003 6.25134,1.97882 7.65143,5.13886 l 0.0135,-1.36378 -19.12795,-18.81987 v 0 0 l -19.12955,18.95836 0.0126,1.26142 z"
     id="path1-3-6-2-9"
     sodipodi:nodetypes="cscccccssscccscsscsscsccsccccccssscccsccccccscccccscccccccc"
     style="fill:#ffffff;fill-opacity:1;stroke:none;stroke-width:1.03975;stroke-miterlimit:10;stroke-opacity:1" /><path
     class="st1"
     d="m 325.24495,228.65579 c -1.39374,3.16282 -4.40614,5.15094 -7.64111,5.15419 -3.67608,0.004 -7.35513,-2.9335 -8.31466,-6.68214 l -0.0738,-0.22051 3.38202,-0.003 -9.5e-4,-1.47044 -1.61746,9.5e-4 0.0733,-0.22064 c 0.0732,-0.22064 0.073,-0.51472 0.14616,-0.88241 v 0 c 0.21914,-1.39714 0.43816,-2.94131 2.49529,-4.4138 1.10203,-0.80985 2.05759,-1.03138 2.86669,-0.66458 0.51488,0.22005 1.03004,0.73418 1.10423,1.3958 0.22123,0.66147 -0.36576,1.83841 -0.65926,2.42689 -0.14676,0.29423 -0.22004,0.51487 -0.22004,0.51487 v 0 c 4.70389,-1.47516 6.9808,-3.75663 7.27164,-6.99188 0.0727,-0.80882 -0.29571,-1.61718 -0.95823,-2.42526 -0.95689,-1.10186 -2.42804,-1.83561 -3.8985,-1.83413 l -0.14703,-3.5e-4 c -2.20565,0.003 -4.18993,0.81295 -5.87924,2.50564 -3.23185,3.09117 -4.54993,8.38606 -4.54785,10.44467 l 7e-4,0.29408 -1.02929,3.8e-4 -7.2e-4,-0.2941 c -0.003,-3.382 0.58168,-6.47049 1.90273,-8.82453 3.52255,-6.47346 2.41433,-11.83943 -3.39854,-16.46549 -5.80357,4.63771 -6.90101,10.00592 -3.36546,16.47229 1.17869,2.35151 1.84357,5.51228 1.92041,8.82069 l 7.1e-4,0.29409 -1.02929,3.8e-4 -7.1e-4,-0.29409 c -9.6e-4,-2.0586 -1.40421,-7.27726 -4.56883,-10.43551 -1.69269,-1.6893 -3.67859,-2.49606 -5.88425,-2.49386 l -0.14704,-3.4e-4 c -1.39683,0.0749 -2.94013,0.73817 -3.8948,1.84195 -0.66088,0.80941 -1.0277,1.61852 -0.95335,2.42718 0.37092,3.30812 2.65224,5.43795 7.28566,6.97726 v 0 c 0,0 -0.0736,-0.22048 -0.22106,-0.51442 -0.3683,-0.66132 -0.88404,-1.76363 -0.66414,-2.42556 0.14643,-0.58832 0.51354,-1.10335 1.10142,-1.39801 0.73491,-0.29484 1.76451,-9.5e-4 2.86802,0.65882 2.06009,1.46837 2.2822,3.0121 2.50416,4.40879 7.1e-4,0.29409 0.0742,0.66163 0.14793,0.8821 l 0.0736,0.2205 -1.61749,9.5e-4 9.5e-4,1.47043 3.382,-0.003 -0.0733,0.22065 c -0.95201,3.75058 -4.62514,6.69514 -8.30124,6.69882 -3.23497,0.003 -6.25134,-1.97882 -7.65143,-5.13886 L 287,230.05503 306.12795,248.8749 v 0 0 l 19.12955,-18.95836 -0.0126,-1.26142 z"
     id="path1-3-6-2"
     sodipodi:nodetypes="cscccccssscccscsscsscsccsccccccssscccsccccccscccccscccccccc"
     style="enable-background:new 0 0 600 659.5;fill:#ffffff;fill-opacity:1;stroke:none;stroke-width:1.03975;stroke-miterlimit:10;stroke-opacity:1" /><path
     class="st1"
     d="m 326.43186,267.83705 c -3.16282,-1.39374 -5.15094,-4.40613 -5.15419,-7.64111 -0.004,-3.67608 2.9335,-7.35513 6.68214,-8.31466 l 0.22051,-0.0738 0.003,3.38202 1.47044,-9.4e-4 -9.5e-4,-1.61746 0.22064,0.0733 c 0.22064,0.0732 0.51472,0.073 0.88241,0.14617 v 0 c 1.39714,0.21914 2.94131,0.43816 4.4138,2.49528 0.80985,1.10204 1.03138,2.05759 0.66458,2.8667 -0.22005,0.51488 -0.73418,1.03004 -1.3958,1.10423 -0.66147,0.22123 -1.83841,-0.36576 -2.4269,-0.65926 -0.29423,-0.14676 -0.51486,-0.22004 -0.51486,-0.22004 v 0 c 1.47516,4.70389 3.75662,6.9808 6.99188,7.27164 0.80882,0.0727 1.61718,-0.29571 2.42525,-0.95823 1.10186,-0.95689 1.83561,-2.42805 1.83414,-3.89851 l 3.5e-4,-0.14702 c -0.003,-2.20565 -0.81295,-4.18993 -2.50564,-5.87924 -3.09117,-3.23186 -8.38606,-4.54993 -10.44467,-4.54786 l -0.29408,7e-4 -3.8e-4,-1.02929 0.2941,-7.2e-4 c 3.382,-0.003 6.47049,0.58168 8.82453,1.90273 6.47345,3.52255 11.83943,2.41433 16.46548,-3.39854 -4.63771,-5.80357 -10.00592,-6.90101 -16.47228,-3.36546 -2.35152,1.17869 -5.51228,1.84357 -8.8207,1.92041 l -0.29408,7.1e-4 -3.8e-4,-1.02929 0.29408,-7.1e-4 c 2.05861,-9.6e-4 7.27727,-1.40421 10.43552,-4.56883 1.6893,-1.69269 2.49606,-3.67859 2.49385,-5.88425 l 3.4e-4,-0.14704 c -0.0749,-1.39683 -0.73817,-2.94013 -1.84195,-3.8948 -0.80941,-0.66088 -1.61851,-1.0277 -2.42718,-0.95335 -3.30812,0.37092 -5.43795,2.65224 -6.97726,7.28566 v 0 c 0,0 0.22048,-0.0736 0.51442,-0.22106 0.66132,-0.3683 1.76363,-0.88404 2.42556,-0.66414 0.58832,0.14643 1.10335,0.51354 1.39801,1.10142 0.29484,0.73491 9.5e-4,1.76451 -0.65882,2.86802 -1.46837,2.06009 -3.0121,2.2822 -4.40879,2.50416 -0.29409,7.1e-4 -0.66163,0.0742 -0.8821,0.14793 l -0.2205,0.0736 -9.5e-4,-1.61749 -1.47043,9.5e-4 0.003,3.382 -0.22065,-0.0733 c -3.75058,-0.95201 -6.69514,-4.62514 -6.69882,-8.30124 -0.003,-3.23497 1.97882,-6.25134 5.13886,-7.65143 l -1.36378,-0.0135 -18.81987,19.12795 v 0 0 l 18.95836,19.12955 1.26142,-0.0126 z"
     id="path1-3-6-2-2"
     sodipodi:nodetypes="cscccccssscccscsscsscsccsccccccssscccsccccccscccccscccccccc"
     style="fill:#ffffff;fill-opacity:1;stroke:none;stroke-width:1.03975;stroke-miterlimit:10;stroke-opacity:1" /><path
     class="st1"
     d="m 285.82404,229.91274 c 3.16282,1.39374 5.15094,4.40614 5.15419,7.64111 0.004,3.67608 -2.9335,7.35513 -6.68214,8.31466 l -0.22051,0.0738 -0.003,-3.38202 -1.47044,9.5e-4 9.5e-4,1.61746 -0.22064,-0.0733 c -0.22064,-0.0732 -0.51472,-0.073 -0.88241,-0.14616 v 0 c -1.39714,-0.21914 -2.94131,-0.43816 -4.4138,-2.49529 -0.80985,-1.10203 -1.03138,-2.05759 -0.66458,-2.86669 0.22005,-0.51488 0.73418,-1.03004 1.3958,-1.10423 0.66147,-0.22123 1.83841,0.36576 2.42689,0.65926 0.29423,0.14676 0.51487,0.22004 0.51487,0.22004 v 0 c -1.47516,-4.70389 -3.75663,-6.9808 -6.99188,-7.27164 -0.80882,-0.0727 -1.61718,0.29571 -2.42526,0.95823 -1.10186,0.95689 -1.83561,2.42804 -1.83413,3.8985 l -3.5e-4,0.14703 c 0.003,2.20565 0.81295,4.18993 2.50564,5.87924 3.09117,3.23185 8.38606,4.54993 10.44467,4.54785 l 0.29408,-7e-4 3.8e-4,1.02929 -0.2941,7.2e-4 c -3.382,0.003 -6.47049,-0.58168 -8.82453,-1.90273 -6.47346,-3.52255 -11.83943,-2.41433 -16.46549,3.39854 4.63772,5.80357 10.00592,6.90101 16.47229,3.36546 2.35151,-1.17869 5.51228,-1.84357 8.82069,-1.92041 l 0.29409,-7.1e-4 3.8e-4,1.02929 -0.29409,7.1e-4 c -2.0586,9.6e-4 -7.27726,1.40421 -10.43551,4.56883 -1.6893,1.69269 -2.49606,3.67859 -2.49386,5.88425 l -3.4e-4,0.14704 c 0.0749,1.39683 0.73817,2.94013 1.84195,3.8948 0.80941,0.66088 1.61852,1.0277 2.42719,0.95335 3.30811,-0.37092 5.43795,-2.65224 6.97726,-7.28566 v 0 c 0,0 -0.22049,0.0736 -0.51442,0.22106 -0.66132,0.3683 -1.76363,0.88404 -2.42556,0.66414 -0.58832,-0.14643 -1.10335,-0.51354 -1.39801,-1.10142 -0.29485,-0.73491 -9.5e-4,-1.76451 0.65882,-2.86802 1.46836,-2.06009 3.01209,-2.2822 4.40879,-2.50416 0.29408,-7.1e-4 0.66163,-0.0742 0.88209,-0.14793 l 0.22051,-0.0736 9.4e-4,1.61749 1.47044,-9.5e-4 -0.003,-3.382 0.22065,0.0733 c 3.75058,0.95201 6.69513,4.62514 6.69882,8.30124 0.003,3.23497 -1.97882,6.25134 -5.13886,7.65143 l 1.36378,0.0135 18.81987,-19.12795 v 0 0 l -18.95836,-19.12955 -1.26142,0.0126 z"
     id="path1-3-6-2-7"
     sodipodi:nodetypes="cscccccssscccscsscsscsccsccccccssscccsccccccscccccscccccccc"
     style="fill:#ffffff;fill-opacity:1;stroke:none;stroke-width:1.03975;stroke-miterlimit:10;stroke-opacity:1" /></g><path
   class="st1"
   d="m 587.512,44.925775 c -1.39375,3.16284 -4.40615,5.15096 -7.64111,5.15419 -3.67607,0.004 -7.35513,-2.9335 -8.31467,-6.68214 l -0.0738,-0.22049 3.382,-0.003 -9.5e-4,-1.47044 -1.61747,9.5e-4 0.0733,-0.22064 c -7.1e-4,-0.29408 0.14643,-0.58833 0.14615,-0.88241 0.21917,-1.39713 0.43817,-2.94131 2.4953,-4.41381 1.10201,-0.80986 2.05758,-1.03137 2.86669,-0.66458 0.51488,0.22005 1.03005,0.73419 1.10423,1.39581 0.22124,0.66147 -0.36576,1.83842 -0.65926,2.42689 -0.14676,0.29424 -0.22003,0.51488 -0.22003,0.51488 v 0 c 4.70391,-1.47518 6.98078,-3.75662 7.27163,-6.99188 0.0728,-0.80882 -0.29571,-1.6172 -0.95823,-2.42526 -0.95688,-1.10187 -2.42805,-1.83561 -3.89849,-1.83415 l -0.14704,-3.5e-4 c -2.20564,0.003 -4.18992,0.81296 -5.87922,2.50565 -3.23188,3.09117 -4.54994,8.38606 -4.54788,10.44467 l 7e-4,0.29408 -1.02928,3.8e-4 -7.3e-4,-0.29409 c -0.003,-3.382 0.58168,-6.47052 1.90272,-8.82453 3.52256,-6.47347 2.41433,-11.83945 -3.39853,-16.4655 -5.80357,4.63771 -6.90101,10.0059 -3.36546,16.47229 1.17869,2.35151 1.84357,5.51227 1.92042,8.82068 l 7e-4,0.2941 -1.02929,3.8e-4 -7.1e-4,-0.29411 c -9.6e-4,-2.0586 -1.40421,-7.27723 -4.56882,-10.4355 -1.69269,-1.68931 -3.6786,-2.49605 -5.88424,-2.49384 l -0.14705,-3.5e-4 c -1.39684,0.0751 -2.94012,0.73817 -3.89481,1.84197 -0.66088,0.80939 -1.02766,1.61851 -0.95334,2.42716 0.37093,3.30812 2.65224,5.43795 7.28566,6.97726 v 0 c 0,0 -0.0738,-0.22049 -0.22109,-0.51442 -0.36826,-0.66132 -0.88401,-1.76363 -0.66413,-2.42556 0.14644,-0.58833 0.51356,-1.10334 1.10144,-1.39803 0.73492,-0.29482 1.69091,-0.0752 2.868,0.65883 2.06009,1.46836 2.28221,3.01211 2.50417,4.4088 7.1e-4,0.29408 0.0742,0.66161 0.14793,0.8821 l 0.0736,0.2205 -1.61746,9.5e-4 9.5e-4,1.47044 3.382,-0.003 -0.0732,0.22064 c -0.95201,3.75056 -4.62516,6.69514 -8.30124,6.69881 -3.23496,0.003 -6.25135,-1.97881 -7.65144,-5.13885 -1.39373,3.16285 -4.40612,5.15096 -7.64108,5.15422 -3.6761,0.004 -7.35514,-2.93351 -8.31468,-6.68215 l -0.0738,-0.22049 3.382,-0.003 -9.5e-4,-1.47043 -1.61749,9.5e-4 0.0733,-0.22064 c 0.0732,-0.22064 0.073,-0.51474 0.14614,-0.88243 v 0 c 0.21917,-1.39712 0.4382,-2.94131 2.49533,-4.41381 1.102,-0.80984 2.05755,-1.03137 2.86668,-0.66457 0.51487,0.22005 1.03003,0.73419 1.10423,1.3958 0.22123,0.66148 -0.36578,1.83842 -0.65927,2.42689 -0.14675,0.29423 -0.22005,0.51487 -0.22005,0.51487 4.70392,-1.47515 6.98082,-3.75661 7.34509,-7.06547 0.0728,-0.80881 -0.2957,-1.61719 -0.95821,-2.42525 -0.95689,-1.10187 -2.42806,-1.8356 -3.8985,-1.83415 l -0.14704,-3.5e-4 c -2.20565,0.003 -4.18991,0.81296 -5.87922,2.50566 -3.23186,3.09117 -4.54994,8.38605 -4.54789,10.44467 l 7.2e-4,0.29408 -1.02932,3.8e-4 -7e-4,-0.29408 c -0.003,-3.382 0.58168,-6.47051 1.9027,-8.82453 3.52254,-6.47347 2.41433,-11.83944 -3.39851,-16.4655 -5.80359,4.63772 -6.90102,10.00591 -3.36549,16.47229 1.17869,2.35151 1.84357,5.51227 1.92041,8.82068 l 7.2e-4,0.29408 -1.0293,3.8e-4 -7.1e-4,-0.29408 c -9.5e-4,-2.0586 -1.40422,-7.27727 -4.56884,-10.43551 -1.69269,-1.68931 -3.6786,-2.49607 -5.88424,-2.49386 l -0.14704,-3.4e-4 c -1.39684,0.075 -2.94013,0.73816 -3.8948,1.84196 -0.6609,0.80941 -1.02768,1.61851 -0.95336,2.42717 0.37095,3.30812 2.65225,5.43794 7.28568,6.97725 v 0 c 0,0 -0.0736,-0.22048 -0.2211,-0.51441 -0.36825,-0.66134 -0.88402,-1.76364 -0.66413,-2.42557 0.14644,-0.58833 0.51355,-1.10334 1.10143,-1.398 0.73492,-0.29483 1.76454,-9.5e-4 2.86801,0.65881 2.0601,1.46838 2.2822,3.0121 2.50417,4.40878 7e-4,0.29409 0.14765,0.58805 0.14792,0.88212 l 0.0736,0.22051 -1.61745,9.5e-4 9.5e-4,1.47042 3.38199,-0.003 -0.0732,0.22064 c -0.952,3.75058 -4.62516,6.69514 -8.30123,6.69882 -3.23496,0.003 -6.32494,-2.05226 -7.65143,-5.13885 -1.39374,3.16285 -4.40614,5.15095 -7.64111,5.1542 -3.67608,0.004 -7.35513,-2.93349 -8.31468,-6.68214 l -0.0738,-0.22049 3.38201,-0.003 -9.5e-4,-1.47043 -1.61747,9.5e-4 0.0733,-0.22064 c -7.1e-4,-0.2941 0.14644,-0.58833 0.14616,-0.88241 0.21914,-1.39711 0.43817,-2.9413 2.49529,-4.41381 1.10203,-0.80984 2.05758,-1.03137 2.86668,-0.66458 0.51489,0.22004 1.03005,0.73419 1.10424,1.39581 0.22124,0.66147 -0.36576,1.8384 -0.65926,2.42687 -0.14675,0.29425 -0.22004,0.51489 -0.22004,0.51489 v 0 c 4.70389,-1.47517 6.9808,-3.75661 7.27163,-6.99187 0.0727,-0.80882 -0.2957,-1.6172 -0.95822,-2.42528 -0.95689,-1.10187 -2.42805,-1.8356 -3.8985,-1.83412 l -0.14704,-3.4e-4 c -2.20565,0.003 -4.18992,0.81294 -5.87923,2.50563 -3.23185,3.09115 -4.54993,8.38605 -4.54785,10.44467 l 7e-4,0.29409 -1.02929,3.7e-4 -7.1e-4,-0.29408 c -0.003,-3.38201 0.58167,-6.47051 1.90273,-8.82454 3.52253,-6.47344 2.41431,-11.83944 -3.39855,-16.46547 -5.80357,4.63769 -6.90101,10.00589 -3.36547,16.47226 1.17871,2.35152 1.84357,5.5123 1.92042,8.8207 l 7.1e-4,0.29411 -1.02929,3.6e-4 -7.1e-4,-0.2941 c -9.5e-4,-2.0586 -1.40421,-7.27723 -4.56883,-10.43552 -1.69269,-1.68929 -3.67859,-2.49602 -5.88425,-2.49383 l -0.14704,-3.5e-4 c -1.39683,0.0748 -2.94013,0.73817 -3.89481,1.84195 -0.66088,0.8094 -1.02769,1.61851 -0.95335,2.42717 0.37093,3.30813 2.65226,5.43797 7.28567,6.97729 v 0 c 0,0 -0.0736,-0.22051 -0.22106,-0.51445 -0.3683,-0.66132 -0.88405,-1.76363 -0.66414,-2.42556 0.14643,-0.58831 0.51354,-1.10334 1.10142,-1.39801 0.73491,-0.29483 1.76451,-9.5e-4 2.868,0.65881 2.06011,1.46837 2.28222,3.01209 2.50418,4.40882 v 0 c 7.1e-4,0.29408 0.0739,0.51455 0.14794,0.88209 l 0.0736,0.22049 -1.61749,9.5e-4 9.5e-4,1.47043 3.382,-0.003 -0.0733,0.22064 c -0.95202,3.75056 -4.62515,6.69514 -8.30124,6.69882 -3.23497,0.003 -6.25134,-1.97881 -7.65143,-5.13885 -1.39373,3.16285 -4.40613,5.15095 -7.6411,5.1542 -3.67609,0.004 -7.35513,-2.93347 -8.31468,-6.68215 l -0.0738,-0.22047 3.382,-0.003 -9.5e-4,-1.47043 -1.61749,9.5e-4 0.0733,-0.22064 c 0.0733,-0.22064 0.0731,-0.51471 0.14614,-0.8824 v 0 c 0.21917,-1.39714 0.43818,-2.94132 2.49532,-4.41382 1.10201,-0.80985 2.05758,-1.03137 2.86669,-0.66458 0.51487,0.22005 1.03003,0.7342 1.10423,1.39582 0.22123,0.66148 -0.36578,1.83842 -0.65927,2.42687 -0.14673,0.29424 -0.22005,0.51488 -0.22005,0.51488 v 0 c 4.70392,-1.47515 6.9808,-3.75663 7.27165,-6.99187 0.0728,-0.80883 -0.29572,-1.61717 -0.95822,-2.42527 -0.95689,-1.10185 -2.42807,-1.83561 -3.89851,-1.83411 l -0.14703,-3.6e-4 c -2.20566,0.003 -4.18993,0.81294 -5.87923,2.50564 -3.23187,3.09117 -4.54995,8.38608 -4.54788,10.44469 l 7.2e-4,0.29408 -1.0293,3.7e-4 -7e-4,-0.29409 c -0.003,-3.382 0.58169,-6.47051 1.90271,-8.82453 3.52256,-6.47345 2.41434,-11.83943 -3.39853,-16.46547 -5.80356,4.63769 -6.90099,10.00588 -3.36547,16.47226 1.17871,2.35152 1.84356,5.5123 1.92041,8.82071 l 7.2e-4,0.29408 -1.0293,3.6e-4 -7e-4,-0.2941 c -9.5e-4,-2.05862 -1.40424,-7.27725 -4.56886,-10.43552 -1.6927,-1.68929 -3.67858,-2.49605 -5.88425,-2.49383 l -0.14702,-3.5e-4 c -1.39685,0.0749 -2.94014,0.73817 -3.8948,1.84197 -0.6609,0.80941 -1.0277,1.6185 -0.95337,2.42719 0.37093,3.3081 2.65226,5.43794 7.28568,6.97726 v 0 c 0,0 -0.0738,-0.2205 -0.22108,-0.51443 -0.36828,-0.66134 -0.88405,-1.76366 -0.66414,-2.42556 0.14644,-0.58833 0.51354,-1.10335 1.10142,-1.39803 0.73492,-0.29482 1.76453,-9.5e-4 2.86802,0.65882 2.06008,1.46837 2.2822,3.0121 2.50417,4.4088 7e-4,0.29409 0.0742,0.66162 0.14792,0.88212 l 0.0738,0.22049 -1.61747,9.5e-4 9.6e-4,1.47043 3.382,-0.003 -0.0733,0.22064 c -0.95201,3.75057 -4.62515,6.69514 -8.30123,6.69882 -3.23497,0.003 -6.25135,-1.97882 -7.65144,-5.13884 -1.39373,3.16282 -4.40615,5.15094 -7.64111,5.15418 -3.67607,0.004 -7.35513,-2.93348 -8.31467,-6.68212 l -0.0736,-0.22051 3.38201,-0.003 -9.6e-4,-1.47046 -1.61748,9.5e-4 0.0733,-0.22065 c 0.0733,-0.22064 0.073,-0.51472 0.14615,-0.88241 v 0 c 0.21916,-1.39712 0.43818,-2.94131 2.49531,-4.4138 1.10201,-0.80984 2.05758,-1.03137 2.86667,-0.66457 0.51488,0.22005 1.03006,0.73418 1.10424,1.3958 0.22122,0.66147 -0.36575,1.83842 -0.65926,2.42689 -0.14676,0.29422 -0.22005,0.51486 -0.22005,0.51486 4.70392,-1.47515 6.98081,-3.75661 7.34511,-7.06547 0.0728,-0.80881 -0.29573,-1.61718 -0.95825,-2.42525 -0.95688,-1.10187 -2.42805,-1.8356 -3.89847,-1.83412 l -0.14706,-3.6e-4 c -2.20565,0.003 -4.18993,0.81295 -5.87922,2.50566 -3.23185,3.09115 -4.54996,8.38605 -4.54787,10.44465 l 7e-4,0.2941 -1.0293,3.8e-4 -7e-4,-0.2941 c -0.003,-3.38199 0.58169,-6.47049 1.90271,-8.82452 3.52257,-6.47346 2.41435,-11.83945 -3.39853,-16.46548 -5.80355,4.6377 -6.90099,10.0059 -3.36547,16.47227 1.17872,2.35152 1.84358,5.51229 1.92043,8.82068 l 7e-4,0.2941 -1.0293,3.8e-4 -7e-4,-0.2941 c -0.003,-2.05862 -1.40422,-7.27727 -4.56884,-10.43553 -1.6927,-1.6893 -3.67861,-2.49605 -5.88425,-2.49384 l -0.14703,-3.3e-4 c -1.39685,0.075 -2.94014,0.73815 -3.89481,1.84196 -0.66088,0.80939 -1.02768,1.6185 -0.95336,2.42717 0.37093,3.3081 2.65224,5.43795 7.28566,6.97727 v 0 c 0,0 -0.0738,-0.2205 -0.22105,-0.51443 -0.3683,-0.66134 -0.88405,-1.76365 -0.66415,-2.42556 0.14644,-0.58833 0.51355,-1.10335 1.10143,-1.39803 0.7349,-0.29482 1.76451,-9.5e-4 2.86801,0.65882 2.06007,1.46835 2.2822,3.0121 2.50416,4.4088 v 0 c 7.2e-4,0.29409 0.0739,0.51458 0.14793,0.88211 l 0.0738,0.2205 -1.61749,9.5e-4 9.5e-4,1.47044 3.382,-0.003 -0.0733,0.22065 c -0.95204,3.75055 -4.62517,6.69513 -8.30125,6.6988 -3.23496,0.003 -6.32494,-2.05225 -7.65143,-5.13884 -1.39374,3.16284 -4.40616,5.15095 -7.64112,5.15421 -3.67605,0.004 -7.35513,-2.93349 -8.31467,-6.68215 l -0.0736,-0.22049 3.382,-0.003 -9.5e-4,-1.47043 -1.61748,9.5e-4 0.0732,-0.22064 c -7e-4,-0.29408 0.14644,-0.58833 0.14615,-0.8824 0.21917,-1.39715 0.43818,-2.94134 2.49532,-4.41382 1.10202,-0.80985 2.05759,-1.03137 2.86669,-0.66458 0.51487,0.22004 1.03003,0.7342 1.10423,1.39581 0.22123,0.66148 -0.36576,1.83841 -0.65927,2.42688 -0.14675,0.29424 -0.22005,0.51488 -0.22005,0.51488 v 0 c 4.70392,-1.47517 6.9808,-3.75663 7.27163,-6.99188 0.0728,-0.80882 -0.2957,-1.61718 -0.95819,-2.42526 -0.9569,-1.10187 -2.42807,-1.83561 -3.89851,-1.83414 l -0.14703,-3.5e-4 c -2.20565,0.003 -4.18993,0.81294 -5.87923,2.50565 -3.23186,3.09117 -4.54994,8.38606 -4.54789,10.44467 l 7.1e-4,0.29409 -1.02929,3.8e-4 -7.1e-4,-0.29409 c -0.003,-3.38201 0.58166,-6.47051 1.90269,-8.82454 3.52256,-6.47346 2.41435,-11.83944 -3.39851,-16.46548 -5.80358,4.6377 -6.90102,10.0059 -3.36549,16.47227 1.17871,2.35152 1.8436,5.51229 1.92044,8.82069 l 6.9e-4,0.29409 -1.02928,3.8e-4 -7.1e-4,-0.2941 c -9.5e-4,-2.05862 -1.40421,-7.27727 -4.56884,-10.43552 -1.69269,-1.68931 -3.82564,-2.49589 -6.03128,-2.49368 -1.39686,0.075 -2.94014,0.73815 -3.89482,1.84193 -0.66088,0.80941 -1.02768,1.61852 -0.95335,2.42718 0.37094,3.30812 2.65224,5.43797 7.28567,6.97726 v 0 c 0,0 -0.0738,-0.22048 -0.22107,-0.51441 -0.36829,-0.66134 -0.88405,-1.76364 -0.66414,-2.42557 0.14644,-0.58831 0.51355,-1.10334 1.10143,-1.39801 0.73492,-0.29482 1.76452,-9.5e-4 2.868,0.65881 2.06008,1.46838 2.28222,3.01211 2.50418,4.40879 7.1e-4,0.29411 0.0742,0.66164 0.14793,0.88213 l 0.0736,0.22048 -1.61748,9.5e-4 9.5e-4,1.47043 3.38202,-0.003 -0.0733,0.22065 c -0.95203,3.75056 -4.62514,6.69512 -8.30124,6.69881 -3.23497,0.003 -6.25135,-1.97881 -7.65144,-5.13885 -1.39374,3.16284 -4.40613,5.15096 -7.64108,5.1542 -3.6761,0.004 -7.35514,-2.9335 -8.31468,-6.68213 l -0.0736,-0.22049 3.382,-0.003 -9.5e-4,-1.47043 -1.61746,9.5e-4 0.0732,-0.22064 c 0.0733,-0.22064 0.0731,-0.51473 0.14616,-0.88242 v 0 c 0.21917,-1.39712 0.43819,-2.9413 2.49531,-4.4138 1.10203,-0.80984 2.05758,-1.03138 2.86669,-0.66458 0.51487,0.22004 1.03005,0.73418 1.10424,1.39581 0.22122,0.66147 -0.36577,1.8384 -0.65926,2.42687 -0.14675,0.29425 -0.22007,0.51489 -0.22007,0.51489 4.70394,-1.47515 6.98081,-3.75663 7.34509,-7.06547 0.0728,-0.80883 -0.29569,-1.61721 -0.9582,-2.42527 -0.95689,-1.10188 -2.42807,-1.83561 -3.89851,-1.83413 l -0.14703,-3.4e-4 c -2.20564,0.003 -4.18993,0.81294 -5.87922,2.50563 -3.23187,3.09117 -4.54994,8.38605 -4.54788,10.44468 l 7e-4,0.29409 -1.02929,3.6e-4 -7.1e-4,-0.29408 c -0.003,-3.382 0.58168,-6.47051 1.9027,-8.82453 3.52255,-6.47346 2.41434,-11.83945 -3.39854,-16.46548 -5.80357,4.63769 -6.90101,10.00589 -3.36545,16.47226 1.17869,2.35151 1.84357,5.51228 1.92041,8.82069 l 7.1e-4,0.29411 -1.02928,3.7e-4 -7.3e-4,-0.29409 c -9.5e-4,-2.05861 -1.40421,-7.27727 -4.56884,-10.43552 -1.69269,-1.6893 -3.67858,-2.49604 -5.88423,-2.49383 l -0.14704,-3.5e-4 c -1.39686,0.0751 -2.94013,0.73817 -3.89482,1.84195 -0.66089,0.80939 -1.02767,1.6185 -0.95333,2.42717 0.37092,3.30811 2.65222,5.43797 7.28567,6.97727 v 0 c 0,0 -0.0738,-0.22049 -0.22109,-0.51444 -0.36828,-0.66133 -0.88405,-1.76363 -0.66414,-2.42555 0.14644,-0.5883 0.51354,-1.10333 1.10142,-1.398 0.73494,-0.29484 1.76453,-9.6e-4 2.868,0.65879 2.06011,1.46838 2.28222,3.01211 2.5042,4.40882 7e-4,0.29407 0.1476,0.58802 0.14792,0.88211 l 0.0736,0.22048 -1.61746,9.6e-4 9.5e-4,1.47043 3.38201,-0.003 -0.0733,0.22064 c -0.95202,3.75057 -4.62516,6.69513 -8.30124,6.69883 -3.23494,0.003 -6.32493,-2.05226 -7.65143,-5.13886 -1.39375,3.16285 -4.40613,5.15096 -7.6411,5.1542 -3.67608,0.004 -7.35513,-2.93348 -8.31468,-6.68214 l -0.0736,-0.22048 3.382,-0.003 -9.5e-4,-1.47044 -1.61748,9.6e-4 0.0733,-0.22064 c -7.2e-4,-0.2941 0.14644,-0.58832 0.14614,-0.8824 0.21918,-1.39715 0.43819,-2.94132 2.49532,-4.41382 1.102,-0.80985 2.05756,-1.03138 2.86667,-0.66456 0.51488,0.22003 1.03004,0.73415 1.10424,1.3958 0.22123,0.66147 -0.36577,1.83841 -0.65927,2.42687 -0.14675,0.29424 -0.22004,0.51488 -0.22004,0.51488 v 0 c 4.70391,-1.47515 6.98081,-3.75663 7.27165,-6.99188 0.0728,-0.80882 -0.29572,-1.61717 -0.95822,-2.42527 -0.9569,-1.10186 -2.42807,-1.83559 -3.8985,-1.83411 l -0.14704,-3.5e-4 c -2.20564,0.003 -4.18993,0.81294 -5.87922,2.50564 -3.23188,3.09116 -4.54994,8.38606 -4.54789,10.44468 l 7.2e-4,0.29409 -1.02931,3.8e-4 -7e-4,-0.29412 c -0.003,-3.382 0.58168,-6.4705 1.9027,-8.82453 3.52257,-6.47346 2.41435,-11.83943 -3.39851,-16.46547 -5.80357,4.6377 -6.90101,10.00589 -3.36547,16.47227 1.1787,2.35151 1.84357,5.5123 1.92041,8.82069 l 7.2e-4,0.2941 -1.02929,3.6e-4 -7e-4,-0.29408 c -9.5e-4,-2.05861 -1.40423,-7.27724 -4.56883,-10.43551 -1.6927,-1.68931 -3.6786,-2.49604 -5.88425,-2.49383 l -0.14704,-3.5e-4 c -1.39683,0.075 -2.94014,0.73817 -3.8948,1.84195 -0.66089,0.80942 -1.0277,1.61852 -0.95336,2.42719 0.37094,3.3081 2.65226,5.43795 7.28567,6.97726 v 0 c 0,0 -0.0736,-0.2205 -0.2211,-0.51443 -0.36824,-0.66133 -0.884,-1.76365 -0.66412,-2.42556 0.14645,-0.58832 0.51355,-1.10334 1.10142,-1.39803 0.73493,-0.29482 1.76454,-9.6e-4 2.86802,0.65882 2.06009,1.46838 2.2822,3.01211 2.50417,4.4088 v 0 c 7.2e-4,0.2941 0.0739,0.51459 0.14793,0.88214 l 0.0738,0.22047 -1.61747,9.6e-4 9.6e-4,1.47045 3.38199,-0.003 -0.0732,0.22063 c -0.95203,3.75057 -4.62519,6.69513 -8.30126,6.69882 -3.23497,0.003 -6.25136,-1.97882 -7.65143,-5.13884 -1.39374,3.16282 -4.40614,5.15094 -7.64111,5.15419 -3.67608,0.004 -7.35513,-2.9335 -8.31466,-6.68214 l -0.0738,-0.22051 3.38202,-0.003 -9.5e-4,-1.47044 -1.61746,9.5e-4 0.0733,-0.22064 c 0.0732,-0.22064 0.073,-0.51472 0.14616,-0.88241 v 0 c 0.21914,-1.39714 0.43816,-2.94131 2.49529,-4.4138 1.10203,-0.80985 2.05759,-1.03138 2.86669,-0.66458 0.51488,0.22005 1.03004,0.73418 1.10423,1.3958 0.22123,0.66147 -0.36576,1.83841 -0.65926,2.42689 -0.14676,0.29423 -0.22004,0.51487 -0.22004,0.51487 v 0 c 4.70389,-1.47516 6.9808,-3.75663 7.27164,-6.99188 0.0727,-0.80882 -0.29571,-1.61718 -0.95823,-2.42526 -0.95689,-1.10186 -2.42804,-1.83561 -3.8985,-1.83413 l -0.14703,-3.5e-4 c -2.20565,0.003 -4.18993,0.81295 -5.87924,2.50564 -3.23185,3.09117 -4.54993,8.38606 -4.54785,10.44467 l 7e-4,0.29408 -1.02929,3.8e-4 -7.2e-4,-0.2941 c -0.003,-3.382 0.58168,-6.47049 1.90273,-8.82453 3.52255,-6.47346 2.41433,-11.83943 -3.39854,-16.46549 -5.80357,4.63771 -6.90101,10.00592 -3.36546,16.47229 1.17869,2.35151 1.84357,5.51228 1.92041,8.82069 l 7.1e-4,0.29409 -1.02929,3.8e-4 -7.1e-4,-0.29409 c -9.6e-4,-2.0586 -1.40421,-7.27726 -4.56883,-10.43551 -1.69269,-1.6893 -3.67859,-2.49606 -5.88425,-2.49386 l -0.14704,-3.4e-4 c -1.39683,0.0749 -2.94013,0.73817 -3.8948,1.84195 -0.66088,0.80941 -1.0277,1.61852 -0.95335,2.42718 0.37092,3.30812 2.65224,5.43795 7.28566,6.97726 v 0 c 0,0 -0.0736,-0.22048 -0.22106,-0.51442 -0.3683,-0.66132 -0.88404,-1.76363 -0.66414,-2.42556 0.14643,-0.58832 0.51354,-1.10335 1.10142,-1.39801 0.73491,-0.29484 1.76451,-9.5e-4 2.86802,0.65882 2.06009,1.46837 2.2822,3.0121 2.50416,4.40879 7.1e-4,0.29409 0.0742,0.66163 0.14793,0.8821 l 0.0736,0.2205 -1.61749,9.5e-4 9.5e-4,1.47043 3.382,-0.003 -0.0733,0.22065 c -0.95201,3.75058 -4.62514,6.69514 -8.30124,6.69882 -3.23497,0.003 -6.25134,-1.97882 -7.65143,-5.13886 -1.39374,3.16284 -4.40614,5.15098 -7.64109,5.15423 -3.6761,0.004 -7.35514,-2.93351 -8.31469,-6.68216 l -0.0738,-0.22049 3.382,-0.003 -9.5e-4,-1.47041 -1.61749,9.5e-4 0.0733,-0.22064 c 0.0733,-0.22064 0.0731,-0.51474 0.14614,-0.88241 v 0 c 0.21916,-1.39712 0.43819,-2.94131 2.49532,-4.41382 1.10201,-0.80984 2.05758,-1.03138 2.86669,-0.66458 0.51487,0.22005 1.03003,0.73419 1.10422,1.39581 0.22123,0.66147 -0.36577,1.8384 -0.65926,2.42688 -0.14673,0.29424 -0.22005,0.51488 -0.22005,0.51488 4.70392,-1.47517 6.98081,-3.75662 7.34509,-7.06547 0.0727,-0.80881 -0.2957,-1.61718 -0.95821,-2.42526 -0.95689,-1.10187 -2.42806,-1.83562 -3.89852,-1.83414 l -0.14702,-3.4e-4 c -2.20565,0.003 -4.18992,0.81294 -5.87923,2.50563 -3.23186,3.09117 -4.54994,8.38606 -4.54787,10.44468 l 7.1e-4,0.29409 -1.02929,3.6e-4 -7e-4,-0.2941 c -0.003,-3.382 0.58167,-6.4705 1.90271,-8.82453 3.52254,-6.47347 2.41432,-11.83943 -3.39853,-16.46549 -5.80357,4.63771 -6.90103,10.00591 -3.36547,16.47229 1.17869,2.3515 1.84356,5.51227 1.92041,8.82067 l 7.2e-4,0.29409 -1.0293,3.9e-4 -7e-4,-0.2941 c -9.5e-4,-2.05861 -1.40423,-7.27727 -4.56884,-10.43551 -1.69269,-1.68931 -3.67858,-2.49607 -5.88424,-2.49384 l -0.14705,-3.5e-4 c -1.39682,0.0749 -2.94013,0.73817 -3.8948,1.84195 -0.66089,0.80939 -1.02769,1.61852 -0.95335,2.42717 0.37091,3.30812 2.65226,5.43796 7.28567,6.97725 v 0 c 0,0 -0.0736,-0.22046 -0.22108,-0.51442 -0.36828,-0.66132 -0.88405,-1.76363 -0.66414,-2.42555 0.14644,-0.58832 0.51355,-1.10334 1.10142,-1.39802 0.73493,-0.29484 1.76453,-9.5e-4 2.86804,0.65882 2.06007,1.46838 2.28218,3.01211 2.50415,4.4088 v 0 c 7e-4,0.29411 0.0739,0.51457 0.14793,0.88212 l 0.0736,0.22048 -1.61747,9.5e-4 9.5e-4,1.47043 3.38201,-0.003 -0.0733,0.22064 c -0.952,3.75058 -4.62515,6.69514 -8.30123,6.69882 -3.23497,0.003 -6.32494,-2.05226 -7.65143,-5.13886 -1.39373,3.16286 -4.40614,5.15096 -7.64111,5.15422 -3.67609,0.004 -7.35513,-2.93351 -8.31468,-6.68216 l -0.0738,-0.22048 3.382,-0.003 -9.5e-4,-1.47043 -1.61749,9.5e-4 0.0733,-0.22064 c -7e-4,-0.29409 0.14644,-0.58833 0.14616,-0.8824 0.21915,-1.39714 0.43817,-2.94131 2.49531,-4.41382 1.10201,-0.80984 2.05757,-1.03137 2.86667,-0.66459 0.51488,0.22006 1.03006,0.7342 1.10424,1.39582 0.22123,0.66148 -0.36578,1.8384 -0.65926,2.42687 -0.14676,0.29425 -0.22005,0.51489 -0.22005,0.51489 v 0 c 4.70391,-1.47517 6.98081,-3.75663 7.27164,-6.99187 0.0727,-0.80883 -0.29571,-1.6172 -0.95822,-2.42528 -0.9569,-1.10186 -2.42805,-1.8356 -3.8985,-1.83412 l -0.14703,-3.4e-4 c -2.20567,0.003 -4.18994,0.81292 -5.87924,2.50563 -3.23184,3.09117 -4.54994,8.38606 -4.54786,10.44468 l 7e-4,0.29408 -1.02927,3.7e-4 -7.2e-4,-0.29409 c -0.003,-3.382 0.58168,-6.4705 1.90272,-8.82453 3.52255,-6.47344 2.41434,-11.83944 -3.39854,-16.46547 -5.80357,4.63769 -6.901,10.00589 -3.36546,16.47226 1.17872,2.35152 1.84357,5.5123 1.92042,8.8207 l 7.1e-4,0.29411 -1.02929,3.6e-4 -7.2e-4,-0.29408 c -0.003,-2.05862 -1.40421,-7.27726 -4.56882,-10.43554 -1.69271,-1.68929 -3.67861,-2.49604 -5.88425,-2.49383 l -0.14704,-3.5e-4 c -1.39685,0.075 -2.94013,0.73817 -3.89481,1.84195 -0.66089,0.8094 -1.02769,1.61851 -0.95336,2.42718 0.37094,3.30811 2.65225,5.43797 7.28568,6.97727 v 0 c 0,0 -0.0736,-0.22048 -0.22108,-0.51443 -0.36828,-0.66133 -0.88404,-1.76364 -0.66414,-2.42555 0.14644,-0.58832 0.51356,-1.10334 1.10144,-1.39802 0.73491,-0.29483 1.69091,-0.0752 2.868,0.6588 2.06008,1.46839 2.28222,3.0121 2.50416,4.40881 7.1e-4,0.29409 0.0742,0.66161 0.14794,0.88212 l 0.0738,0.22049 -1.61751,9.5e-4 9.6e-4,1.47045 3.382,-0.003 -0.0733,0.22064 c -0.95203,3.75058 -4.62516,6.69511 -8.30126,6.69881 -3.23496,0.003 -6.25133,-1.9788 -7.65143,-5.13884 -1.39373,3.16284 -4.40613,5.15096 -7.6411,5.1542 -3.67608,0.004 -7.35512,-2.93349 -8.31467,-6.68214 l -0.0738,-0.22049 3.38202,-0.003 -9.6e-4,-1.47042 -1.61747,9.5e-4 0.0733,-0.22064 c 0.0733,-0.22062 0.0731,-0.51471 0.14614,-0.8824 v 0 c 0.21917,-1.39712 0.43818,-2.9413 2.49532,-4.41382 1.10201,-0.80984 2.05759,-1.03137 2.86669,-0.66456 0.51487,0.22005 1.03003,0.73417 1.10423,1.39581 0.22123,0.66147 -0.36577,1.83842 -0.65927,2.42688 -0.14675,0.29424 -0.22005,0.51486 -0.22005,0.51486 4.70392,-1.47515 6.9808,-3.75661 7.34509,-7.06545 0.0728,-0.80883 -0.29571,-1.61719 -0.95821,-2.42527 -0.9569,-1.10186 -2.42807,-1.8356 -3.8985,-1.83413 l -0.14703,-3.5e-4 c -2.20565,0.003 -4.18994,0.81294 -5.87924,2.50563 -3.23186,3.09117 -4.54993,8.38607 -4.54787,10.44468 l 7.1e-4,0.29408 -1.02929,3.8e-4 -7e-4,-0.2941 c -0.003,-3.382 0.58166,-6.4705 1.9027,-8.82454 3.52255,-6.47344 2.41434,-11.83943 -3.39852,-16.46547 -5.80357,4.6377 -6.90102,10.0059 -3.36549,16.47227 1.17871,2.35151 1.84359,5.51228 1.92042,8.8207 l 7.2e-4,0.29408 -1.02932,3.7e-4 -7e-4,-0.29409 c -9.6e-4,-2.05859 -1.40423,-7.27724 -4.56883,-10.43549 -1.69271,-1.68931 -3.6786,-2.49606 -5.88426,-2.49385 l -0.14704,-3.5e-4 c -1.39684,0.0749 -2.94013,0.73817 -3.89482,1.84195 -0.66088,0.80941 -1.02766,1.61852 -0.95333,2.42718 0.37091,3.30812 2.65223,5.43795 7.28565,6.97726 v 0 c 0,0 -0.0738,-0.2205 -0.22107,-0.51443 -0.36828,-0.66132 -0.88403,-1.76363 -0.66414,-2.42555 0.14644,-0.58832 0.51357,-1.10333 1.10143,-1.39802 0.73493,-0.29484 1.76454,-9.6e-4 2.86803,0.65882 2.06008,1.46836 2.28219,3.01209 2.50415,4.40879 7.1e-4,0.2941 0.14765,0.58803 0.14793,0.88211 l 0.0738,0.2205 -1.61747,9.6e-4 9.5e-4,1.47045 3.382,-0.003 -0.0733,0.22064 c -0.952,3.75057 -4.62515,6.69512 -8.30123,6.69881 -3.23497,0.003 -6.32493,-2.05226 -7.65142,-5.13886 -1.39376,3.16285 -4.40615,5.15097 -7.6411,5.15422 -3.6761,0.004 -7.35514,-2.93351 -8.31469,-6.68215 l -0.0738,-0.22049 3.382,-0.003 -9.5e-4,-1.47043 -1.61749,9.6e-4 0.0732,-0.22062 c -7.2e-4,-0.29411 0.14644,-0.58833 0.14614,-0.88243 0.21917,-1.39715 0.43819,-2.94131 2.49532,-4.41381 1.10203,-0.80986 2.05758,-1.03138 2.86669,-0.66457 0.51486,0.22005 1.03002,0.73418 1.10422,1.3958 0.22123,0.66147 -0.36577,1.83841 -0.65927,2.42687 -0.14675,0.29425 -0.22005,0.51489 -0.22005,0.51489 v 0 c 4.70392,-1.47516 6.98082,-3.75663 7.27165,-6.99189 0.0728,-0.80879 -0.2957,-1.61717 -0.95821,-2.42524 -0.95689,-1.10187 -2.42808,-1.8356 -3.8985,-1.83414 l -0.14704,-3.5e-4 c -2.20565,0.003 -4.18993,0.81295 -5.87922,2.50566 -3.23186,3.09115 -4.54995,8.38604 -4.54788,10.44465 l 7.1e-4,0.2941 -1.02931,3.8e-4 -7e-4,-0.29409 c -0.003,-3.38201 0.58167,-6.47052 1.90269,-8.82453 3.52256,-6.47347 2.41436,-11.83946 -3.39851,-16.46549 -5.80358,4.6377 -6.90102,10.00589 -3.36549,16.47228 1.17872,2.35151 1.8436,5.51228 1.92044,8.82068 l 7e-4,0.2941 -1.02929,3.8e-4 -7.1e-4,-0.29411 c -9.5e-4,-2.0586 -1.40421,-7.27724 -4.56883,-10.43551 -1.6927,-1.6893 -3.678616,-2.49604 -5.884259,-2.49383 l -0.147036,-3.5e-4 c -1.396856,0.075 -2.94014,0.73817 -3.89481,1.84195 -0.660883,0.80941 -1.027684,1.61852 -0.953347,2.42719 0.370935,3.30809 2.652229,5.43794 7.285669,6.97725 v 0 c 0,0 -0.07381,-0.22049 -0.221078,-0.51442 -0.368287,-0.66133 -0.884048,-1.76364 -0.664132,-2.42556 0.146437,-0.58831 0.513542,-1.10335 1.101412,-1.39803 0.734921,-0.29481 1.764531,-9.5e-4 2.868011,0.65882 2.06009,1.46837 2.2822,3.01211 2.50419,4.4088 v 0 c 7.1e-4,0.29409 0.0739,0.51457 0.14791,0.88212 l 0.0738,0.22049 -1.61751,9.5e-4 9.6e-4,1.47044 3.382,-0.003 -0.0733,0.22065 c -0.95204,3.75056 -4.62517,6.69511 -8.301264,6.69881 -3.234946,0.003 -6.251346,-1.97882 -7.651422,-5.13885 -1.393741,3.16284 -4.406142,5.15096 -7.641107,5.15419 -3.676083,0.004 -7.355129,-2.93349 -8.314676,-6.68214 l -0.07362,-0.22048 3.382001,-0.003 -9.52e-4,-1.47043 -1.617478,9.5e-4 0.07324,-0.22064 c 0.07334,-0.22063 0.07305,-0.51474 0.146151,-0.8824 v 0 c 0.219183,-1.39714 0.438176,-2.94132 2.495306,-4.41381 1.102021,-0.80986 2.057577,-1.03138 2.866687,-0.66459 0.514885,0.22005 1.030046,0.73419 1.104241,1.39581 0.221231,0.66147 -0.365772,1.83842 -0.659264,2.42688 -0.146751,0.29425 -0.220041,0.51488 -0.220041,0.51488 v 0 c 4.703911,-1.47517 6.980786,-3.75661 7.27163,-6.99187 0.07267,-0.80882 -0.295701,-1.6172 -0.958223,-2.42526 -0.95688,-1.10188 -2.428054,-1.83561 -3.898496,-1.83415 l -0.147036,-3.5e-4 c -2.205643,0.003 -4.189921,0.81296 -5.879222,2.50565 -3.231869,3.09117 -4.54994,8.38606 -4.547883,10.44466 l 7.05e-4,0.29409 -1.029284,3.8e-4 -7.24e-4,-0.29409 c -0.0029,-3.382 0.581689,-6.4705 1.902722,-8.82453 3.522551,-6.47347 2.41433,-11.83944 -3.398517,-16.4655 -5.803589,4.63772 -6.901029,10.00592 -3.365476,16.47229 1.178692,2.3515 1.843566,5.51227 1.920417,8.82068 l 7.05e-4,0.2941 -1.029284,3.8e-4 -7.05e-4,-0.2941 c -9.52e-4,-2.05859 -1.404228,-7.27725 -4.568836,-10.43549 -1.692691,-1.68931 -3.678598,-2.49607 -5.884241,-2.49386 l -0.147046,-3.4e-4 c -1.396837,0.075 -2.94012,0.73816 -3.89481,1.84195 -0.660883,0.8094 -1.027665,1.61852 -0.953337,2.42716 0.370925,3.30814 2.652238,5.43796 7.285659,6.97727 v 0 c 0,0 -0.07362,-0.22048 -0.221088,-0.51443 -0.368267,-0.66131 -0.884038,-1.76363 -0.664131,-2.42555 0.146446,-0.58833 0.513552,-1.10334 1.10144,-1.39801 0.734916,-0.29484 1.764514,-9.5e-4 2.867993,0.65881 2.060092,1.46837 2.282209,3.0121 2.504183,4.40879 6.95e-4,0.29409 0.07419,0.66163 0.147922,0.88211 l 0.07362,0.2205 -1.617459,9.5e-4 9.53e-4,1.47044 3.382001,-0.003 -0.07324,0.22065 c -0.952013,3.75056 -4.625164,6.69512 -8.301247,6.69882 -3.234956,0.003 -6.251347,-1.97882 -7.651441,-5.13887 -1.393732,3.16287 -4.406133,5.15097 -7.641079,5.15422 -3.676102,0.004 -7.355139,-2.9335 -8.314695,-6.68216 l -0.07362,-0.22047 3.382001,-0.003 -9.52e-4,-1.47041 -1.617478,9.5e-4 0.07334,-0.22062 c 0.07334,-0.22064 0.07305,-0.51474 0.146141,-0.88242 v 0 c 0.219165,-1.39712 0.438186,-2.9413 2.495325,-4.41382 1.102012,-0.80984 2.057559,-1.03137 2.866669,-0.66457 0.514876,0.22005 1.030046,0.73418 1.104231,1.39582 0.221241,0.66147 -0.365762,1.83839 -0.659264,2.42685 -0.146741,0.29425 -0.22005,0.51489 -0.22005,0.51489 4.70393,-1.47515 6.980814,-3.75661 7.34511,-7.06545 0.07277,-0.80883 -0.295721,-1.61719 -0.958223,-2.42527 -0.956899,-1.10186 -2.428074,-1.83562 -3.898505,-1.83413 l -0.147046,-3.5e-4 c -2.205643,0.003 -4.189921,0.81292 -5.879222,2.50563 -3.23186,3.09116 -4.54994,8.38606 -4.547883,10.44467 l 7.14e-4,0.29409 -1.029312,3.7e-4 -7.05e-4,-0.29409 c -0.0029,-3.382 0.581688,-6.47049 1.902702,-8.82454 3.522552,-6.47344 2.41435,-11.83943 -3.398516,-16.46546 -5.80357,4.63768 -6.90101,10.00589 -3.365467,16.47225 1.178692,2.35152 1.843575,5.5123 1.920408,8.82072 l 7.24e-4,0.29407 -1.029303,3.7e-4 -7.05e-4,-0.29409 c -9.52e-4,-2.0586 -1.404218,-7.27725 -4.568836,-10.43551 -1.692692,-1.6893 -3.678589,-2.49605 -5.884232,-2.49383 l -0.147046,-3.6e-4 c -1.396827,0.0751 -2.940139,0.73818 -3.8948,1.84196 -0.660902,0.80941 -1.027684,1.61852 -0.953346,2.42718 0.370934,3.30812 2.652247,5.43795 7.285649,6.97726 v 0 c 0,0 -0.07362,-0.22048 -0.221079,-0.51443 -0.368267,-0.66132 -0.884028,-1.76364 -0.664131,-2.42554 0.146437,-0.58832 0.513542,-1.10334 1.101422,-1.39803 0.734934,-0.29483 1.764533,-9.5e-4 2.868021,0.65882 2.060082,1.46838 2.282199,3.01211 2.504163,4.40879 v 0 c 7.15e-4,0.2941 0.0741,0.51458 0.147932,0.88212 l 0.07362,0.22049 -1.617487,9.6e-4 9.52e-4,1.47042 3.382002,-0.003 -0.07334,0.22064 c -0.952013,3.75057 -4.625154,6.69513 -8.301228,6.69884 -3.234974,0.003 -6.32494,-2.05227 -7.651431,-5.13886 0,17.92882 0,0 -0.04143,17.92841 l 230.479759,2.26984 342.59613,-0.47207 z"
   id="path1"
   sodipodi:nodetypes="csccccccccccscsscsscsccsccccccssscccsccccccscccccscscccccssscccscccsscsccsccccccssscccsccccccccccccscsccccccccccscsscsscsccsccccccssscccscccccssccccccscscccccssscccscsscsscsccsccccccssscccsccccccscccccscscccccssscccscccsscsccsccccccssscccscccccssccccccscsccccccccccscsscsscsccsccccccsscccsccccccscccccscscccccssscccscccsscsccsccccccssscccsccccccccccccscsccccccccccscsscsscsccsccccccssscccscccccssccccccscscccccssscccscsscsscsccsccccccssscccsccccccscccccscscccccssscccscccsscsccsccccccssscccscccccssccccccscsccccccccccscsscsscsccsccccccssscccsccccccscccccscscccccssscccscccsscsccsccccccssscccsccccccccccccscsccccccccccscsscsscsccsccccccssscccscccccssccccccscscccccssscccscsscsscsccsccccccssscccsccccccscccccscscccccssscccscccsscsccsccccccssscccscccccssccccccsccccc"
   style="fill:#ffffff;fill-opacity:1;stroke:none;stroke-width:1.03975;stroke-opacity:1" /><path
   class="st1"
   d="m 384.20654,123.71462 c -1.39374,3.16284 -4.40616,5.15095 -7.64112,5.15421 -3.67605,0.004 -7.35513,-2.93349 -8.31467,-6.68215 l -0.0736,-0.22049 3.382,-0.003 -9.5e-4,-1.47043 -1.61748,9.5e-4 0.0732,-0.22064 c -7e-4,-0.29408 0.14644,-0.58833 0.14615,-0.8824 0.21917,-1.39715 0.43818,-2.94134 2.49532,-4.41382 1.10202,-0.80985 2.05759,-1.03137 2.86669,-0.66458 0.51487,0.22004 1.03003,0.7342 1.10423,1.39581 0.22123,0.66148 -0.36576,1.83841 -0.65927,2.42688 -0.14675,0.29424 -0.22005,0.51488 -0.22005,0.51488 v 0 c 4.70392,-1.47517 6.9808,-3.75663 7.27163,-6.99188 0.0728,-0.80882 -0.2957,-1.61718 -0.95819,-2.42526 -0.9569,-1.10187 -2.42807,-1.83561 -3.89851,-1.83414 l -0.14703,-3.5e-4 c -2.20565,0.003 -4.18993,0.81294 -5.87923,2.50565 -3.23186,3.09117 -4.54994,8.38606 -4.54789,10.44467 l 7.1e-4,0.29409 -1.02929,3.8e-4 -7.1e-4,-0.29409 c -0.003,-3.38201 0.58166,-6.47051 1.90269,-8.82454 3.52256,-6.47346 2.41435,-11.839439 -3.39851,-16.465479 -5.80358,4.6377 -6.90102,10.005899 -3.36549,16.472269 1.17871,2.35152 1.8436,5.51229 1.92044,8.82069 l 6.9e-4,0.29409 -1.02928,3.8e-4 -7.1e-4,-0.2941 c -9.5e-4,-2.05862 -1.40421,-7.27727 -4.56884,-10.43552 -1.69269,-1.68931 -3.82564,-2.49589 -6.03128,-2.49368 -1.39686,0.075 -2.94014,0.73815 -3.89482,1.84193 -0.66088,0.80941 -1.02768,1.61852 -0.95335,2.42718 0.37094,3.30812 2.65224,5.43797 7.28567,6.97726 v 0 c 0,0 -0.0738,-0.22048 -0.22107,-0.51441 -0.36829,-0.66134 -0.88405,-1.76364 -0.66414,-2.42557 0.14644,-0.58831 0.51355,-1.10334 1.10143,-1.39801 0.73492,-0.29482 1.76452,-9.5e-4 2.868,0.65881 2.06008,1.46838 2.28222,3.01211 2.50418,4.40879 7.1e-4,0.29411 0.0742,0.66164 0.14793,0.88213 l 0.0736,0.22048 -1.61748,9.5e-4 9.5e-4,1.47043 3.38202,-0.003 -0.0733,0.22065 c -0.95203,3.75056 -4.62514,6.69512 -8.30124,6.69881 -3.23497,0.003 -6.25135,-1.97881 -7.65144,-5.13885 -1.39374,3.16284 -4.40613,5.15096 -7.64108,5.1542 -3.6761,0.004 -7.35514,-2.9335 -8.31468,-6.68213 l -0.0736,-0.22049 3.382,-0.003 -9.5e-4,-1.47043 -1.61746,9.5e-4 0.0732,-0.22064 c 0.0733,-0.22064 0.0731,-0.51473 0.14616,-0.88242 v 0 c 0.21917,-1.39712 0.43819,-2.9413 2.49531,-4.4138 1.10203,-0.80984 2.05758,-1.03138 2.86669,-0.66458 0.51487,0.22004 1.03005,0.73418 1.10424,1.39581 0.22122,0.66147 -0.36577,1.8384 -0.65926,2.42687 -0.14675,0.29425 -0.22007,0.51489 -0.22007,0.51489 4.70394,-1.47515 6.98081,-3.75663 7.34509,-7.06547 0.0728,-0.80883 -0.29569,-1.61721 -0.9582,-2.42527 -0.95689,-1.10188 -2.42807,-1.83561 -3.89851,-1.83413 l -0.14703,-3.4e-4 c -2.20564,0.003 -4.18993,0.81294 -5.87922,2.50563 -3.23187,3.09117 -4.54994,8.38605 -4.54788,10.44468 l 7e-4,0.29409 -1.02929,3.6e-4 -7.1e-4,-0.29408 c -0.003,-3.382 0.58168,-6.47051 1.9027,-8.82453 3.52255,-6.47346 2.41434,-11.839449 -3.39854,-16.465479 -5.80357,4.63769 -6.90101,10.005889 -3.36545,16.472259 1.17869,2.35151 1.84357,5.51228 1.92041,8.82069 l 7.1e-4,0.29411 -1.02928,3.7e-4 -7.3e-4,-0.29409 c -9.5e-4,-2.05861 -1.40421,-7.27727 -4.56884,-10.43552 -1.69269,-1.6893 -3.67858,-2.49604 -5.88423,-2.49383 l -0.14704,-3.5e-4 c -1.39686,0.0751 -2.94013,0.73817 -3.89482,1.84195 -0.66089,0.80939 -1.02767,1.6185 -0.95333,2.42717 0.37092,3.30811 2.65222,5.43797 7.28567,6.97727 v 0 c 0,0 -0.0738,-0.22049 -0.22109,-0.51444 -0.36828,-0.66133 -0.88405,-1.76363 -0.66414,-2.42555 0.14644,-0.5883 0.51354,-1.10333 1.10142,-1.398 0.73494,-0.29484 1.76453,-9.6e-4 2.868,0.65879 2.06011,1.46838 2.28222,3.01211 2.5042,4.40882 7e-4,0.29407 0.1476,0.58802 0.14792,0.88211 l 0.0736,0.22048 -1.61746,9.6e-4 9.5e-4,1.47043 3.38201,-0.003 -0.0733,0.22064 c -0.95202,3.75057 -4.62516,6.69513 -8.30124,6.69883 -3.23494,0.003 -6.32493,-2.05226 -7.65143,-5.13886 -1.39375,3.16285 -4.40613,5.15096 -7.6411,5.1542 -3.67608,0.004 -7.35513,-2.93348 -8.31468,-6.68214 l -0.0736,-0.22048 3.382,-0.003 -9.5e-4,-1.47044 -1.61748,9.6e-4 0.0733,-0.22064 c -7.2e-4,-0.2941 0.14644,-0.58832 0.14614,-0.8824 0.21918,-1.39715 0.43819,-2.94132 2.49532,-4.41382 1.102,-0.80985 2.05756,-1.03138 2.86667,-0.66456 0.51488,0.22003 1.03004,0.73415 1.10424,1.3958 0.22123,0.66147 -0.36577,1.83841 -0.65927,2.42687 -0.14675,0.29424 -0.22004,0.51488 -0.22004,0.51488 v 0 c 4.70391,-1.47515 6.98081,-3.75663 7.27165,-6.99188 0.0728,-0.80882 -0.29572,-1.61717 -0.95822,-2.42527 -0.9569,-1.10186 -2.42807,-1.83559 -3.8985,-1.83411 l -0.14704,-3.5e-4 c -2.20564,0.003 -4.18993,0.81294 -5.87922,2.50564 -3.23188,3.09116 -4.54994,8.38606 -4.54789,10.44468 l 7.2e-4,0.29409 -1.02931,3.8e-4 -7e-4,-0.29412 c -0.003,-3.382 0.58168,-6.4705 1.9027,-8.82453 3.52257,-6.47346 2.41435,-11.839429 -3.39851,-16.465469 -5.80357,4.6377 -6.90101,10.005889 -3.36547,16.472269 1.1787,2.35151 1.84357,5.5123 1.92041,8.82069 l 7.2e-4,0.2941 -1.02929,3.6e-4 -7e-4,-0.29408 c -9.5e-4,-2.05861 -1.40423,-7.27724 -4.56883,-10.43551 -1.6927,-1.68931 -3.6786,-2.49604 -5.88425,-2.49383 l -0.14704,-3.5e-4 c -1.39683,0.075 -2.94014,0.73817 -3.8948,1.84195 -0.66089,0.80942 -1.0277,1.61852 -0.95336,2.42719 0.37094,3.3081 2.65226,5.43795 7.28567,6.97726 v 0 c 0,0 -0.0736,-0.2205 -0.2211,-0.51443 -0.36824,-0.66133 -0.884,-1.76365 -0.66412,-2.42556 0.14645,-0.58832 0.51355,-1.10334 1.10142,-1.39803 0.73493,-0.29482 1.76454,-9.6e-4 2.86802,0.65882 2.06009,1.46838 2.2822,3.01211 2.50417,4.4088 v 0 c 7.2e-4,0.2941 0.0739,0.51459 0.14793,0.88214 l 0.0738,0.22047 -1.61747,9.6e-4 9.6e-4,1.47045 3.38199,-0.003 -0.0732,0.22063 c -0.95203,3.75057 -4.62519,6.69513 -8.30126,6.69882 -3.23497,0.003 -6.25136,-1.97882 -7.65143,-5.13884 -1.39374,3.16282 -4.40614,5.15094 -7.64111,5.15419 -3.67608,0.004 -7.35513,-2.9335 -8.31466,-6.68214 l -0.0738,-0.22051 3.38202,-0.003 -9.5e-4,-1.47044 -1.61746,9.5e-4 0.0733,-0.22064 c 0.0732,-0.22064 0.073,-0.51472 0.14616,-0.88241 v 0 c 0.21914,-1.39714 0.43816,-2.94131 2.49529,-4.4138 1.10203,-0.80985 2.05759,-1.03138 2.86669,-0.66458 0.51488,0.22005 1.03004,0.73418 1.10423,1.3958 0.22123,0.66147 -0.36576,1.83841 -0.65926,2.42689 -0.14676,0.29423 -0.22004,0.51487 -0.22004,0.51487 v 0 c 4.70389,-1.47516 6.9808,-3.75663 7.27164,-6.99188 0.0727,-0.80882 -0.29571,-1.61718 -0.95823,-2.42526 -0.95689,-1.10186 -2.42804,-1.83561 -3.8985,-1.83413 l -0.14703,-3.5e-4 c -2.20565,0.003 -4.18993,0.81295 -5.87924,2.50564 -3.23185,3.09117 -4.54993,8.38606 -4.54785,10.44467 l 7e-4,0.29408 -1.02929,3.8e-4 -7.2e-4,-0.2941 c -0.003,-3.382 0.58168,-6.47049 1.90273,-8.82453 3.52255,-6.47346 2.41433,-11.839429 -3.39854,-16.465489 -5.80357,4.63771 -6.90101,10.005919 -3.36546,16.472289 1.17869,2.35151 1.84357,5.51228 1.92041,8.82069 l 7.1e-4,0.29409 -1.02929,3.8e-4 -7.1e-4,-0.29409 c -9.6e-4,-2.0586 -1.40421,-7.27726 -4.56883,-10.43551 -1.69269,-1.6893 -3.67859,-2.49606 -5.88425,-2.49386 l -0.14704,-3.4e-4 c -1.39683,0.0749 -2.94013,0.73817 -3.8948,1.84195 -0.66088,0.80941 -1.0277,1.61852 -0.95335,2.42718 0.37092,3.30812 2.65224,5.43795 7.28566,6.97726 v 0 c 0,0 -0.0736,-0.22048 -0.22106,-0.51442 -0.3683,-0.66132 -0.88404,-1.76363 -0.66414,-2.42556 0.14643,-0.58832 0.51354,-1.10335 1.10142,-1.39801 0.73491,-0.29484 1.76451,-9.5e-4 2.86802,0.65882 2.06009,1.46837 2.2822,3.0121 2.50416,4.40879 7.1e-4,0.29409 0.0742,0.66163 0.14793,0.8821 l 0.0736,0.2205 -1.61749,9.5e-4 9.5e-4,1.47043 3.382,-0.003 -0.0733,0.22065 c -0.95201,3.75058 -4.62514,6.69514 -8.30124,6.69882 -3.23497,0.003 -6.25134,-1.97882 -7.65143,-5.13886 -0.027,20.19065 -0.027,20.19065 -0.027,20.19065 l 152.83523,-0.47207 c 0,-19.69035 0,0 0.0435,-19.78752 z"
   id="path1-3"
   sodipodi:nodetypes="csccccccccccscsscsscsccsccccccsscccsccccccscccccscscccccssscccscccsscsccsccccccssscccsccccccccccccscsccccccccccscsscsscsccsccccccssscccscccccssccccccscscccccssscccscsscsscsccsccccccssscccsccccccscccccscccc"
   style="fill:#ffffff;fill-opacity:1;stroke:none;stroke-width:1.03975;stroke-miterlimit:10;stroke-opacity:1" /><path
   class="st1"
   d="m 477.85614,125.36272 c -1.39374,3.16282 -4.40614,5.15094 -7.64111,5.15419 -3.67608,0.004 -7.35513,-2.9335 -8.31466,-6.68214 l -0.0738,-0.22051 3.38202,-0.003 -9.5e-4,-1.47044 -1.61746,9.5e-4 0.0733,-0.22064 c 0.0732,-0.22064 0.073,-0.51472 0.14616,-0.88241 v 0 c 0.21914,-1.39714 0.43816,-2.94131 2.49529,-4.4138 1.10203,-0.80985 2.05759,-1.03138 2.86669,-0.66458 0.51488,0.22005 1.03004,0.73418 1.10423,1.3958 0.22123,0.66147 -0.36576,1.83841 -0.65926,2.42689 -0.14676,0.29423 -0.22004,0.51487 -0.22004,0.51487 v 0 c 4.70389,-1.47516 6.9808,-3.75663 7.27164,-6.99188 0.0727,-0.80882 -0.29571,-1.61718 -0.95823,-2.42526 -0.95689,-1.10186 -2.42804,-1.83561 -3.8985,-1.83413 l -0.14703,-3.5e-4 c -2.20565,0.003 -4.18993,0.81295 -5.87924,2.50564 -3.23185,3.09117 -4.54993,8.38606 -4.54785,10.44467 l 7e-4,0.29408 -1.02929,3.8e-4 -7.2e-4,-0.2941 c -0.003,-3.382 0.58168,-6.47049 1.90273,-8.82453 3.52255,-6.47346 2.41433,-11.83943 -3.39854,-16.465487 -5.80357,4.637707 -6.90101,10.005917 -3.36546,16.472287 1.17869,2.35151 1.84357,5.51228 1.92041,8.82069 l 7.1e-4,0.29409 -1.02929,3.8e-4 -7.1e-4,-0.29409 c -9.6e-4,-2.0586 -1.40421,-7.27726 -4.56883,-10.43551 -1.69269,-1.6893 -3.67859,-2.49606 -5.88425,-2.49386 l -0.14704,-3.4e-4 c -1.39683,0.0749 -2.94013,0.73817 -3.8948,1.84195 -0.66088,0.80941 -1.0277,1.61852 -0.95335,2.42718 0.37092,3.30812 2.65224,5.43795 7.28566,6.97726 v 0 c 0,0 -0.0736,-0.22048 -0.22106,-0.51442 -0.3683,-0.66132 -0.88404,-1.76363 -0.66414,-2.42556 0.14643,-0.58832 0.51354,-1.10335 1.10142,-1.39801 0.73491,-0.29484 1.76451,-9.5e-4 2.86802,0.65882 2.06009,1.46837 2.2822,3.0121 2.50416,4.40879 7.1e-4,0.29409 0.0742,0.66163 0.14793,0.8821 l 0.0736,0.2205 -1.61749,9.5e-4 9.5e-4,1.47043 3.382,-0.003 -0.0733,0.22065 c -0.95201,3.75058 -4.62514,6.69514 -8.30124,6.69882 -3.23497,0.003 -6.25134,-1.97882 -7.65143,-5.13886 l -0.0135,1.36378 19.12795,18.81987 v 0 0 l 19.12955,-18.95836 -0.0126,-1.26142 z"
   id="path1-3-6"
   sodipodi:nodetypes="cscccccssscccscsscsscsccsccccccssscccsccccccscccccscccccccc"
   style="fill:#ffffff;fill-opacity:1;stroke:none;stroke-width:1.03975;stroke-miterlimit:10;stroke-opacity:1" />
<radialGradient
   id="path2875_2_"
   cx="-468.8243"
   cy="-333.5426"
   r="299.8217"
   gradientTransform="matrix(1.3534 0 0 1.3491 856.4473 669.413)"
   gradientUnits="userSpaceOnUse">
	<stop
   offset="0"
   style="stop-color:#FFFFFF;stop-opacity:0.3137"
   id="stop3" />
	<stop
   offset="0.19"
   style="stop-color:#FFFFFF;stop-opacity:0.251"
   id="stop4" />
	<stop
   offset="0.6"
   style="stop-color:#6B6B6B;stop-opacity:0.1255"
   id="stop5" />
	<stop
   offset="1"
   style="stop-color:#000000;stop-opacity:0.1255"
   id="stop6" />
</radialGradient>

</svg>
