<svg xmlns="http://www.w3.org/2000/svg" width="390.059" height="261.162" xmlns:v="https://vecta.io/nano"><path fill="#d40000" d="M.012 261.115V.032L390.059.03v261.024z"/><g fill="#ffd900"><path d="M281.65 51.89l12.289 16.877 23.388-13.462.006.006c-7.079 1.131-13.68-1.144-13.68-1.144 1.235 1.698.689 3.965-1.219 5.063s-4.459.614-5.694-1.083c-1.124-1.543-.774-3.558.734-4.736l-.009.042c-13.406-2.276-5.488-10.872-5.488-10.872a3.32 3.32 0 0 0 .052 3.907c1.236 1.696 3.785 2.183 5.694 1.083s2.455-3.366 1.219-5.063c-.38-.522-.885-.93-1.457-1.212l.093.036c1.283.621 2.898.615 4.211-.141 1.908-1.099 2.454-3.365 1.219-5.063l-.014-.018c-1.235-1.697-3.785-2.182-5.694-1.083-1.313.755-1.98 2.063-1.867 3.358l-.002.09c-.055-.58-.267-1.156-.646-1.678-1.235-1.698-3.786-2.183-5.694-1.083s-2.454 3.366-1.219 5.062c.891 1.224 2.464 1.817 3.987 1.642 0 0-12.061 2.905-8.909-8.902l.047.011c-1.827.742-4.037.201-5.161-1.343-1.236-1.697-.689-3.964 1.219-5.063s4.458-.614 5.694 1.083c0 0 .367-6.287 4.425-11.565l.006.007-23.39 13.461 12.289 16.877 3.571 4.906zm57.6 80.021l12.289 16.877 23.389-13.463.005.007c-7.078 1.13-13.68-1.144-13.68-1.144 1.235 1.697.689 3.964-1.219 5.063s-4.458.613-5.694-1.084c-1.124-1.543-.773-3.558.734-4.737l-.008.043c-13.406-2.277-5.489-10.872-5.489-10.872a3.32 3.32 0 0 0 .053 3.907c1.235 1.697 3.785 2.183 5.694 1.083s2.454-3.365 1.219-5.063c-.381-.521-.886-.929-1.458-1.211l.094.036c1.282.621 2.897.614 4.21-.141 1.909-1.099 2.454-3.366 1.219-5.063l-.013-.018c-1.236-1.697-3.785-2.182-5.694-1.083-1.313.756-1.98 2.063-1.868 3.358l-.001.091a3.4 3.4 0 0 0-.647-1.679c-1.235-1.697-3.785-2.182-5.693-1.083s-2.455 3.365-1.219 5.063c.891 1.223 2.464 1.817 3.987 1.641 0 0-12.062 2.906-8.909-8.902l.046.011c-1.827.742-4.036.2-5.161-1.343-1.235-1.697-.689-3.964 1.219-5.063s4.459-.614 5.694 1.083c0 0 .368-6.287 4.426-11.566l.005.007-23.388 13.463 12.288 16.878 3.57 4.904z"/><path d="M339.25 74.829l12.289 16.877 23.389-13.463.005.007c-7.078 1.131-13.68-1.145-13.68-1.145 1.235 1.698.689 3.965-1.219 5.063s-4.458.614-5.694-1.083c-1.124-1.542-.773-3.558.734-4.736l-.008.042c-13.406-2.276-5.489-10.872-5.489-10.872a3.32 3.32 0 0 0 .053 3.907c1.235 1.697 3.785 2.183 5.694 1.084s2.454-3.366 1.219-5.063c-.381-.523-.886-.93-1.458-1.212l.094.036c1.282.621 2.897.614 4.21-.141 1.909-1.099 2.454-3.365 1.219-5.063l-.013-.019c-1.236-1.696-3.785-2.181-5.694-1.083-1.313.755-1.98 2.063-1.868 3.358l-.001.09c-.056-.58-.267-1.156-.647-1.678-1.235-1.698-3.785-2.183-5.693-1.084s-2.455 3.366-1.219 5.063c.891 1.223 2.464 1.817 3.987 1.642 0 0-12.062 2.905-8.909-8.902l.046.011c-1.827.741-4.036.201-5.161-1.343-1.235-1.697-.689-3.964 1.219-5.063s4.459-.614 5.694 1.083c0 0 .368-6.286 4.426-11.565l.005.007-23.388 13.462 12.288 16.877 3.57 4.906z"/></g><g fill="#fff"><path d="M170.486 0L.812 232.308.01 233.406l.002.002v27.707h22.221l-.01-.007.882-1.208L195.012 24.561h0V.033h-24.525V0zM44.106 261.142l-.254-.438c-.43-.582-.998-1.096-1.695-1.499-2.721-1.571-6.376-.862-8.163 1.585l-.209.307 10.321.045zM195.025 59.141c-1.944 1.522-4.842 1.788-7.096.485-2.722-1.572-3.479-4.831-1.692-7.277 1.098-1.502 2.898-2.351 4.754-2.417-3.293-1.573-7.467-.639-9.563 2.232-1.607 2.198-1.551 4.929-.105 7l-.002.003c-2.716-.332-5.543.731-7.149 2.93-2.097 2.87-1.36 6.642 1.595 8.679-.686-1.535-.546-3.343.551-4.844 1.787-2.448 5.442-3.157 8.163-1.585 2.671 1.542 3.449 4.709 1.787 7.139l.018.01c.796.108 1.577.364 2.296.778 2.721 1.572 3.478 4.831 1.689 7.277l-.181.247c-1.787 2.448-5.442 3.158-8.163 1.585-.718-.414-1.298-.946-1.731-1.55l-.018-.009c-1.821 2.338-5.392 2.994-8.063 1.45-2.721-1.57-3.478-4.83-1.69-7.275 1.097-1.503 2.897-2.351 4.753-2.417-3.293-1.572-7.467-.638-9.563 2.232-1.606 2.199-1.55 4.93-.104 7.001l-.003.002c-2.716-.332-5.542.731-7.149 2.931-2.096 2.87-1.359 6.642 1.596 8.678-.686-1.536-.547-3.345.55-4.845 1.788-2.447 5.442-3.156 8.164-1.584 2.67 1.542 3.449 4.71 1.787 7.14l.017.011c.796.107 1.578.364 2.296.778 2.721 1.572 3.478 4.831 1.69 7.277l-.18.247c-1.788 2.448-5.443 3.158-8.164 1.585-.718-.414-1.298-.946-1.731-1.55l-.018-.01c-1.821 2.339-5.392 2.995-8.063 1.451-2.721-1.572-3.479-4.83-1.691-7.276 1.098-1.503 2.898-2.351 4.754-2.417-3.294-1.574-7.467-.639-9.563 2.232-1.606 2.199-1.55 4.929-.104 7.001l-.003.002c-2.716-.332-5.542.731-7.149 2.931-2.096 2.869-1.36 6.64 1.596 8.678-.686-1.535-.547-3.344.55-4.844 1.787-2.447 5.442-3.156 8.164-1.584 2.67 1.542 3.448 4.71 1.786 7.14l.018.009c.796.108 1.578.365 2.296.779 2.721 1.571 3.479 4.83 1.69 7.276l-.181.248c-1.787 2.448-5.442 3.157-8.164 1.585a5.53 5.53 0 0 1-1.731-1.55l-.018-.01c-1.82 2.339-5.392 2.995-8.063 1.451-2.721-1.572-3.478-4.83-1.69-7.276 1.098-1.503 2.897-2.351 4.754-2.417-3.293-1.574-7.468-.639-9.564 2.232-1.605 2.199-1.549 4.928-.104 7l-.003.003c-2.716-.332-5.543.73-7.149 2.93-2.097 2.87-1.36 6.641 1.595 8.679-.686-1.535-.547-3.344.551-4.844 1.787-2.447 5.441-3.156 8.163-1.584 2.671 1.542 3.449 4.709 1.787 7.14l.018.009c.796.108 1.578.365 2.296.779 2.721 1.572 3.479 4.829 1.69 7.277l-.181.247c-1.788 2.447-5.442 3.158-8.163 1.586-.719-.415-1.299-.947-1.731-1.55l-.019-.01c-1.821 2.338-5.392 2.995-8.062 1.451-2.722-1.571-3.479-4.831-1.691-7.276 1.097-1.502 2.898-2.35 4.754-2.417-3.294-1.574-7.468-.639-9.564 2.231-1.606 2.2-1.549 4.93-.104 7.002l-.002.003c-2.716-.332-5.543.731-7.149 2.93-2.097 2.87-1.36 6.641 1.595 8.678-.686-1.535-.546-3.344.55-4.844 1.788-2.448 5.442-3.158 8.164-1.585 2.67 1.542 3.449 4.71 1.787 7.14l.018.011a6.27 6.27 0 0 1 2.295.778c2.722 1.572 3.479 4.83 1.691 7.278l-.181.247c-1.788 2.447-5.443 3.157-8.164 1.585-.718-.414-1.298-.947-1.731-1.55l-.018-.011c-1.821 2.34-5.393 2.994-8.063 1.452-2.721-1.572-3.479-4.83-1.69-7.276 1.097-1.503 2.897-2.35 4.753-2.417-3.293-1.574-7.468-.639-9.563 2.231-1.606 2.2-1.55 4.93-.104 7.003l-.002.001c-2.717-.332-5.544.731-7.15 2.932-2.096 2.869-1.359 6.641 1.595 8.678-.685-1.536-.545-3.345.551-4.845 1.788-2.447 5.442-3.157 8.164-1.584 2.67 1.542 3.449 4.71 1.787 7.139l.018.01c.795.108 1.577.363 2.295.779 2.721 1.571 3.479 4.83 1.69 7.277l-.181.247c-1.786 2.447-5.442 3.157-8.163 1.586-.718-.415-1.298-.947-1.731-1.55l-.018-.01c-1.821 2.34-5.392 2.994-8.063 1.452-2.721-1.572-3.479-4.83-1.691-7.276 1.098-1.503 2.898-2.351 4.755-2.418-3.295-1.573-7.468-.639-9.564 2.232-1.606 2.2-1.55 4.929-.104 7.001l-.003.004c-2.716-.333-5.542.73-7.149 2.93-2.096 2.869-1.359 6.642 1.596 8.679-.686-1.536-.547-3.344.549-4.844 1.789-2.448 5.442-3.158 8.165-1.585 2.671 1.542 3.448 4.71 1.787 7.14l.018.009c.795.108 1.577.364 2.295.778 2.721 1.572 3.479 4.83 1.69 7.278l-.181.246c-1.787 2.448-5.442 3.158-8.164 1.586-.717-.414-1.297-.947-1.731-1.55l-.018-.01c-1.82 2.339-5.391 2.995-8.062 1.451-2.721-1.571-3.479-4.831-1.691-7.277 1.098-1.502 2.897-2.35 4.754-2.417-3.294-1.573-7.468-.638-9.564 2.231-1.605 2.2-1.55 4.93-.104 7.001l-.003.003c-2.716-.332-5.543.731-7.15 2.931-2.096 2.869-1.359 6.641 1.596 8.678-.686-1.535-.546-3.343.551-4.845 1.787-2.447 5.442-3.157 8.163-1.584 2.671 1.542 3.45 4.709 1.787 7.14l.018.01c.796.107 1.579.363 2.296.777 2.722 1.572 3.478 4.831 1.69 7.278l-.181.246c-1.787 2.447-5.442 3.158-8.163 1.586-.718-.414-1.299-.946-1.733-1.549l-.017-.011c-1.82 2.339-5.392 2.993-8.062 1.451-2.722-1.572-3.479-4.83-1.691-7.277 1.097-1.502 2.898-2.35 4.754-2.417-3.294-1.572-7.468-.637-9.563 2.231-1.607 2.201-1.55 4.931-.104 7.002l-.003.002c-2.716-.331-5.543.732-7.149 2.932-2.096 2.87-1.359 6.642 1.595 8.678-.686-1.534-.546-3.343.552-4.845 1.786-2.447 5.441-3.156 8.162-1.585 2.671 1.543 3.449 4.711 1.787 7.141l.018.011c.796.107 1.578.362 2.296.777 2.721 1.572 3.478 4.83 1.689 7.277l-.18.247c-1.788 2.446-5.442 3.157-8.164 1.585-.717-.414-1.298-.946-1.731-1.548l-.018-.011c-1.821 2.338-5.392 2.993-8.062 1.451-2.723-1.572-3.479-4.83-1.691-7.278 1.098-1.501 2.898-2.349 4.754-2.417-3.293-1.572-7.468-.638-9.564 2.232-1.606 2.2-1.549 4.93-.104 7.002l-.003.002c-2.716-.331-5.543.731-7.15 2.932-.853 1.167-1.236 2.483-1.192 3.771l.043.401-4.88-.007.376-.514L195.006 29.483l.003 8.054c-1.982.28-3.836 1.285-5.023 2.911-2.096 2.868-1.36 6.641 1.595 8.677-.686-1.535-.546-3.343.551-4.844.723-.989 1.75-1.695 2.898-2.08l-.005 16.94zM.011 204.493l.507.103a6.2 6.2 0 0 1 1.444.603c2.72 1.573 3.479 4.831 1.691 7.278-.761 1.041-1.858 1.767-3.078 2.137l-.563.094-.001-10.215z"/><path d="M157.451.03c2.092 2.126 2.427 5.327.593 7.837-1.607 2.2-4.435 3.264-7.15 2.932l-.003.003c1.445 2.072 1.503 4.801-.104 7.001-2.097 2.87-6.271 3.805-9.563 2.232 1.855-.067 3.656-.917 4.753-2.417 1.788-2.448 1.029-5.705-1.691-7.277-2.671-1.542-6.241-.889-8.061 1.451l-.018-.011c-.435-.603-1.016-1.134-1.733-1.548-2.721-1.573-6.376-.863-8.163 1.585l-.18.246c-1.788 2.448-1.031 5.707 1.689 7.278.717.415 1.5.67 2.296.777l.018.01c-1.662 2.431-.885 5.598 1.786 7.141 2.723 1.572 6.376.862 8.163-1.584 1.099-1.503 1.237-3.31.552-4.845 2.954 2.036 3.691 5.809 1.595 8.677-1.607 2.2-4.435 3.263-7.15 2.932l-.003.003c1.446 2.072 1.503 4.8-.104 7.001-2.096 2.869-6.27 3.804-9.563 2.232 1.856-.067 3.657-.917 4.753-2.417 1.788-2.448 1.031-5.706-1.69-7.277-2.671-1.543-6.241-.889-8.062 1.45l-.018-.01c-.434-.602-1.015-1.134-1.732-1.547-2.721-1.573-6.375-.863-8.163 1.584l-.181.247c-1.787 2.447-1.031 5.707 1.69 7.277.718.415 1.5.67 2.296.777l.018.011c-1.662 2.431-.884 5.598 1.786 7.141 2.722 1.572 6.376.862 8.164-1.584 1.097-1.503 1.235-3.311.551-4.846 2.954 2.037 3.691 5.808 1.595 8.678-1.606 2.2-4.435 3.263-7.15 2.931l-.002.003c1.444 2.072 1.503 4.801-.104 7-2.096 2.869-6.27 3.805-9.563 2.232 1.855-.067 3.656-.916 4.753-2.417 1.788-2.447 1.031-5.706-1.69-7.278-2.67-1.542-6.241-.887-8.062 1.451l-.018-.011c-.434-.604-1.016-1.134-1.733-1.549-2.721-1.57-6.375-.861-8.163 1.585l-.18.249c-1.788 2.447-1.031 5.707 1.689 7.277.718.415 1.501.67 2.297.777l.018.01c-1.663 2.43-.884 5.597 1.786 7.141 2.722 1.572 6.376.861 8.163-1.585 1.098-1.502 1.236-3.31.551-4.845 2.955 2.037 3.691 5.808 1.595 8.677-1.605 2.2-4.434 3.264-7.149 2.932l-.002.003c1.445 2.071 1.502 4.8-.104 7.001-2.096 2.869-6.27 3.805-9.563 2.232 1.856-.068 3.656-.917 4.753-2.417 1.788-2.448 1.03-5.706-1.691-7.278-2.67-1.542-6.24-.888-8.061 1.451l-.018-.011c-.434-.604-1.016-1.134-1.733-1.549-2.721-1.571-6.375-.862-8.163 1.585l-.18.247c-1.788 2.448-1.032 5.707 1.689 7.279a6.26 6.26 0 0 0 2.297.777l.017.011c-1.661 2.429-.884 5.597 1.787 7.14 2.722 1.572 6.376.862 8.163-1.584 1.098-1.502 1.236-3.31.551-4.845 2.955 2.036 3.691 5.808 1.595 8.677-1.606 2.2-4.434 3.263-7.15 2.932l-.002.003c1.446 2.071 1.503 4.8-.104 7.001-2.097 2.869-6.271 3.804-9.564 2.232 1.856-.068 3.657-.917 4.754-2.417 1.787-2.448 1.03-5.706-1.69-7.278-2.671-1.542-6.242-.888-8.063 1.45l-.017-.009c-.435-.603-1.016-1.134-1.732-1.549-2.722-1.571-6.377-.862-8.164 1.584l-.181.247c-1.787 2.448-1.03 5.707 1.69 7.279a6.26 6.26 0 0 0 2.296.776l.018.01c-1.662 2.431-.884 5.598 1.787 7.14 2.721 1.572 6.376.863 8.162-1.583 1.098-1.503 1.236-3.311.551-4.846 2.956 2.037 3.692 5.808 1.596 8.679-1.606 2.201-4.435 3.264-7.15 2.931l-.002.004c1.445 2.071 1.503 4.8-.104 7.001-2.095 2.868-6.27 3.804-9.563 2.23 1.856-.065 3.657-.915 4.753-2.417 1.788-2.447 1.031-5.706-1.69-7.277-2.671-1.542-6.24-.887-8.062 1.451l-.018-.01c-.434-.602-1.015-1.134-1.732-1.548-2.721-1.571-6.376-.862-8.163 1.584l-.18.248c-1.788 2.448-1.032 5.707 1.689 7.278.717.416 1.5.669 2.297.776l.017.01c-1.661 2.431-.884 5.599 1.787 7.141 2.721 1.572 6.376.863 8.162-1.583 1.098-1.503 1.237-3.312.551-4.846 2.955 2.037 3.691 5.808 1.596 8.679-1.606 2.198-4.435 3.264-7.15 2.931l-.002.003c1.445 2.072 1.503 4.801-.104 7.001-2.096 2.87-6.271 3.805-9.563 2.232 1.856-.067 3.657-.916 4.753-2.417 1.788-2.447 1.031-5.706-1.689-7.277-2.671-1.542-6.242-.887-8.062 1.451l-.018-.01c-.435-.604-1.016-1.134-1.733-1.549-2.721-1.572-6.374-.862-8.163 1.585l-.18.247c-1.789 2.447-1.031 5.706 1.689 7.278.717.414 1.5.669 2.296.776l.018.01c-1.663 2.431-.884 5.599 1.787 7.141 2.722 1.573 6.376.863 8.163-1.583 1.098-1.503 1.235-3.311.55-4.846 2.956 2.037 3.691 5.808 1.596 8.678-1.606 2.199-4.435 3.263-7.15 2.931l-.001.003c1.445 2.072 1.501 4.801-.105 7.001-2.096 2.869-6.27 3.804-9.564 2.232 1.856-.067 3.658-.916 4.755-2.417 1.787-2.448 1.03-5.706-1.691-7.277-2.671-1.543-6.24-.888-8.062 1.451l-.019-.011a5.49 5.49 0 0 0-1.731-1.548c-2.721-1.572-6.376-.862-8.163 1.585l-.182.247c-1.787 2.448-1.031 5.706 1.69 7.278.718.415 1.501.669 2.298.776l.017.01c-1.662 2.431-.884 5.598 1.786 7.141 2.721 1.572 6.377.863 8.163-1.584 1.098-1.501 1.237-3.31.552-4.845 2.954 2.037 3.691 5.808 1.595 8.679-1.606 2.199-4.434 3.263-7.15 2.931l-.003.003c1.445 2.072 1.504 4.801-.104 7.001-2.096 2.869-6.271 3.804-9.564 2.231 1.855-.068 3.657-.916 4.754-2.417 1.787-2.447 1.03-5.705-1.691-7.277-2.671-1.542-6.242-.887-8.063 1.451l-.017-.011a5.54 5.54 0 0 0-1.732-1.549c-2.625-1.516-6.117-.909-7.965 1.33l.003 6.747c.366.392.803.742 1.308 1.034.718.413 1.501.669 2.296.776l.017.012c-1.663 2.429-.883 5.597 1.787 7.139 2.722 1.573 6.376.863 8.165-1.584 1.096-1.501 1.235-3.31.549-4.845 2.956 2.038 3.692 5.808 1.597 8.679-1.607 2.199-4.436 3.263-7.151 2.931l-.002.002c1.445 2.072 1.501 4.802-.104 7.001-1.706 2.334-4.784 3.389-7.646 2.854l-.802-.26-.011 2.112c1.305 1.863 1.485 4.262.338 6.328l-.319.469-.014 4.162.604-.826L166.755.031 157.451.03zm-12.22.003c-.552 2.098.375 4.357 2.503 5.586 2.722 1.572 6.376.862 8.163-1.583.907-1.243 1.159-2.692.832-4.025l-11.498.022z"/></g><path d="M219.522 0l169.674 232.308.802 1.098-.002.002v27.707h-22.221l.01-.007-.882-1.208L195.012 24.561V.033h24.509V0zm83.838 209.225l-12.289-16.877-23.388 13.462-.006-.006c7.079-1.131 13.68 1.144 13.68 1.144-1.235-1.698-.689-3.965 1.219-5.063s4.459-.614 5.694 1.083c1.124 1.543.774 3.558-.734 4.736l.009-.042c13.406 2.276 5.488 10.872 5.488 10.872a3.32 3.32 0 0 0-.052-3.907c-1.236-1.696-3.785-2.183-5.694-1.083s-2.455 3.366-1.219 5.063c.38.522.885.93 1.457 1.212l-.093-.036c-1.283-.621-2.898-.615-4.211.141-1.908 1.099-2.454 3.365-1.219 5.063l.014.018c1.235 1.697 3.785 2.182 5.694 1.083 1.313-.755 1.98-2.063 1.867-3.358l.002-.09c.055.58.267 1.156.646 1.678 1.235 1.698 3.786 2.183 5.694 1.083s2.454-3.366 1.219-5.062c-.891-1.224-2.464-1.817-3.987-1.642 0 0 12.061-2.905 8.909 8.902l-.047-.011c1.827-.742 4.037-.201 5.161 1.343 1.236 1.697.689 3.964-1.219 5.063s-4.458.614-5.694-1.083c0 0-.367 6.287-4.425 11.565l-.006-.007 23.39-13.461-12.289-16.877zm-57.6-80.021l-12.289-16.877-23.389 13.463-.005-.007c7.078-1.13 13.68 1.144 13.68 1.144-1.235-1.697-.689-3.964 1.219-5.063s4.458-.613 5.694 1.084c1.124 1.543.773 3.558-.734 4.737l.008-.043c13.406 2.277 5.489 10.872 5.489 10.872a3.32 3.32 0 0 0-.053-3.907c-1.235-1.697-3.785-2.183-5.694-1.083s-2.454 3.365-1.219 5.063c.381.521.886.929 1.458 1.211l-.094-.036c-1.282-.621-2.897-.614-4.21.141-1.909 1.099-2.454 3.366-1.219 5.063l.013.018c1.236 1.697 3.785 2.182 5.694 1.083 1.313-.756 1.98-2.063 1.868-3.358l.001-.091a3.4 3.4 0 0 0 .647 1.679c1.235 1.697 3.785 2.182 5.693 1.083s2.455-3.365 1.219-5.063c-.891-1.223-2.464-1.817-3.987-1.641 0 0 12.062-2.906 8.909 8.902l-.046-.011c1.827-.742 4.036-.2 5.161 1.343 1.235 1.697.689 3.964-1.219 5.063s-4.459.614-5.694-1.083c0 0-.368 6.287-4.426 11.566l-.005-.007 23.388-13.463-12.288-16.878zm0 57.082l-12.289-16.877-23.389 13.463-.005-.007c7.078-1.131 13.68 1.145 13.68 1.145-1.235-1.698-.689-3.965 1.219-5.063s4.458-.614 5.694 1.083c1.124 1.542.773 3.558-.734 4.736l.008-.042c13.406 2.276 5.489 10.872 5.489 10.872a3.32 3.32 0 0 0-.053-3.907c-1.235-1.697-3.785-2.183-5.694-1.084s-2.454 3.366-1.219 5.063c.381.523.886.93 1.458 1.212l-.094-.036c-1.282-.621-2.897-.614-4.21.141-1.909 1.099-2.454 3.365-1.219 5.063l.013.019c1.236 1.696 3.785 2.181 5.694 1.083 1.313-.755 1.98-2.063 1.868-3.358l.001-.09c.056.58.267 1.156.647 1.678 1.235 1.698 3.785 2.183 5.693 1.084s2.455-3.366 1.219-5.063c-.891-1.223-2.464-1.817-3.987-1.642 0 0 12.062-2.905 8.909 8.902l-.046-.011c1.827-.741 4.036-.201 5.161 1.343 1.235 1.697.689 3.964-1.219 5.063s-4.459.614-5.694-1.083c0 0-.368 6.286-4.426 11.565l-.005-.007 23.388-13.462-12.288-16.877z" fill="#ffd900"/></svg>